{
  "accessors": [
    {
      "name": "MatrixTransform_Group_MatrixTransform_Group_0:MatrixTransform_Group_MatrixTransform_Group_0:MatrixTransform_Group_MatrixTransform_Group_0:MatrixTransform_Group_MatrixTransform_Group_0:MatrixTransform_Group_zhw_ck_GTH1000G_Geometry_0_Geometry_0_Geometry_0_Geometry_0_Geometry_0-Mesh_positions",
      "componentType": 5126,
      "count": 613,
      "min": [
        -0.06319999694824219,
        -0.0038999998942017555,
        -0.02239999920129776
      ],
      "max": [
        0.06769999861717224,
        0.2353000044822693,
        0.021800000220537186
      ],
      "type": "VEC3",
      "bufferView": 0,
      "byteOffset": 0
    },
    {
      "name": "MatrixTransform_Group_MatrixTransform_Group_0:MatrixTransform_Group_MatrixTransform_Group_0:MatrixTransform_Group_MatrixTransform_Group_0:MatrixTransform_Group_MatrixTransform_Group_0:MatrixTransform_Group_zhw_ck_GTH1000G_Geometry_0_Geometry_0_Geometry_0_Geometry_0_Geometry_0-Mesh_normals",
      "componentType": 5126,
      "count": 613,
      "min": [
        -1,
        -1,
        -0.9999931454658508
      ],
      "max": [
        1,
        1,
        1
      ],
      "type": "VEC3",
      "bufferView": 0,
      "byteOffset": 13404
    },
    {
      "name": "MatrixTransform_Group_MatrixTransform_Group_0:MatrixTransform_Group_MatrixTransform_Group_0:MatrixTransform_Group_MatrixTransform_Group_0:MatrixTransform_Group_MatrixTransform_Group_0:MatrixTransform_Group_zhw_ck_GTH1000G_Geometry_0_Geometry_0_Geometry_0_Geometry_0_Geometry_0-Mesh_texcoords",
      "componentType": 5126,
      "count": 613,
      "min": [
        0.008799999952316284,
        0.027000000700354576
      ],
      "max": [
        0.9905999898910522,
        0.9595999717712402
      ],
      "type": "VEC2",
      "bufferView": 1,
      "byteOffset": 0
    },
    {
      "name": "MatrixTransform_Group_MatrixTransform_Group_0:MatrixTransform_Group_MatrixTransform_Group_0:MatrixTransform_Group_MatrixTransform_Group_0:MatrixTransform_Group_MatrixTransform_Group_0:MatrixTransform_Group_zhw_ck_GTH1000G_Geometry_0_Geometry_0_Geometry_0_Geometry_0_Geometry_0-Mesh_0_indices",
      "componentType": 5123,
      "count": 1071,
      "min": [
        0
      ],
      "max": [
        612
      ],
      "type": "SCALAR",
      "bufferView": 2,
      "byteOffset": 0
    },
    {
      "name": "MatrixTransform_Group_MatrixTransform_Group_0:MatrixTransform_Group_MatrixTransform_Group_0:MatrixTransform_Group_MatrixTransform_Group_0:MatrixTransform_Group_MatrixTransform_Group_0:MatrixTransform_Group_zhw_ck_GTH1000G_Geometry_1_Geometry_0_Geometry_0_Geometry_0_Geometry_0-Mesh_positions",
      "componentType": 5126,
      "count": 322,
      "min": [
        -0.06319999694824219,
        0.014999999664723873,
        -0.02239999920129776
      ],
      "max": [
        0.06419999897480011,
        0.24390000104904175,
        0.017000000923871994
      ],
      "type": "VEC3",
      "bufferView": 0,
      "byteOffset": 7356
    },
    {
      "name": "MatrixTransform_Group_MatrixTransform_Group_0:MatrixTransform_Group_MatrixTransform_Group_0:MatrixTransform_Group_MatrixTransform_Group_0:MatrixTransform_Group_MatrixTransform_Group_0:MatrixTransform_Group_zhw_ck_GTH1000G_Geometry_1_Geometry_0_Geometry_0_Geometry_0_Geometry_0-Mesh_normals",
      "componentType": 5126,
      "count": 322,
      "min": [
        -1,
        -0.9238766431808472,
        -1
      ],
      "max": [
        1,
        0.9916965961456299,
        0.9914475083351135
      ],
      "type": "VEC3",
      "bufferView": 0,
      "byteOffset": 20760
    },
    {
      "name": "MatrixTransform_Group_MatrixTransform_Group_0:MatrixTransform_Group_MatrixTransform_Group_0:MatrixTransform_Group_MatrixTransform_Group_0:MatrixTransform_Group_MatrixTransform_Group_0:MatrixTransform_Group_zhw_ck_GTH1000G_Geometry_1_Geometry_0_Geometry_0_Geometry_0_Geometry_0-Mesh_texcoords",
      "componentType": 5126,
      "count": 322,
      "min": [
        0.32019999623298645,
        0.028999999165534973
      ],
      "max": [
        0.991100013256073,
        0.9050999879837036
      ],
      "type": "VEC2",
      "bufferView": 1,
      "byteOffset": 4904
    },
    {
      "name": "MatrixTransform_Group_MatrixTransform_Group_0:MatrixTransform_Group_MatrixTransform_Group_0:MatrixTransform_Group_MatrixTransform_Group_0:MatrixTransform_Group_MatrixTransform_Group_0:MatrixTransform_Group_zhw_ck_GTH1000G_Geometry_1_Geometry_0_Geometry_0_Geometry_0_Geometry_0-Mesh_0_indices",
      "componentType": 5123,
      "count": 858,
      "min": [
        0
      ],
      "max": [
        321
      ],
      "type": "SCALAR",
      "bufferView": 2,
      "byteOffset": 2144
    },
    {
      "name": "MatrixTransform_Group_MatrixTransform_Group_0:MatrixTransform_Group_MatrixTransform_Group_0:MatrixTransform_Group_MatrixTransform_Group_0:MatrixTransform_Group_MatrixTransform_Group_0:MatrixTransform_Group_zhw_ck_GTH1000G_Geometry_2_Geometry_0_Geometry_0_Geometry_0_Geometry_0-Mesh_positions",
      "componentType": 5126,
      "count": 134,
      "min": [
        -0.04089999943971634,
        0.029899999499320984,
        -0.00800000037997961
      ],
      "max": [
        0.03999999910593033,
        0.24390000104904175,
        0.022299999371170998
      ],
      "type": "VEC3",
      "bufferView": 0,
      "byteOffset": 11220
    },
    {
      "name": "MatrixTransform_Group_MatrixTransform_Group_0:MatrixTransform_Group_MatrixTransform_Group_0:MatrixTransform_Group_MatrixTransform_Group_0:MatrixTransform_Group_MatrixTransform_Group_0:MatrixTransform_Group_zhw_ck_GTH1000G_Geometry_2_Geometry_0_Geometry_0_Geometry_0_Geometry_0-Mesh_normals",
      "componentType": 5126,
      "count": 134,
      "min": [
        -0.6749245524406433,
        -0.9238766431808472,
        -0.9257907867431641
      ],
      "max": [
        0.6799445152282715,
        0.9238766431808472,
        1
      ],
      "type": "VEC3",
      "bufferView": 0,
      "byteOffset": 24624
    },
    {
      "name": "MatrixTransform_Group_MatrixTransform_Group_0:MatrixTransform_Group_MatrixTransform_Group_0:MatrixTransform_Group_MatrixTransform_Group_0:MatrixTransform_Group_MatrixTransform_Group_0:MatrixTransform_Group_zhw_ck_GTH1000G_Geometry_2_Geometry_0_Geometry_0_Geometry_0_Geometry_0-Mesh_texcoords",
      "componentType": 5126,
      "count": 134,
      "min": [
        0.023099999874830246,
        0.4830000102519989
      ],
      "max": [
        0.9650999903678894,
        0.9710000157356262
      ],
      "type": "VEC2",
      "bufferView": 1,
      "byteOffset": 7480
    },
    {
      "name": "MatrixTransform_Group_MatrixTransform_Group_0:MatrixTransform_Group_MatrixTransform_Group_0:MatrixTransform_Group_MatrixTransform_Group_0:MatrixTransform_Group_MatrixTransform_Group_0:MatrixTransform_Group_zhw_ck_GTH1000G_Geometry_2_Geometry_0_Geometry_0_Geometry_0_Geometry_0-Mesh_0_indices",
      "componentType": 5123,
      "count": 318,
      "min": [
        0
      ],
      "max": [
        133
      ],
      "type": "SCALAR",
      "bufferView": 2,
      "byteOffset": 3860
    },
    {
      "name": "MatrixTransform_Group_MatrixTransform_Group_0:MatrixTransform_Group_MatrixTransform_Group_0:MatrixTransform_Group_MatrixTransform_Group_0:MatrixTransform_Group_MatrixTransform_Group_0:MatrixTransform_Group_zhw_ck_GTH1000G_Geometry_3_Geometry_0_Geometry_0_Geometry_0_Geometry_0-Mesh_positions",
      "componentType": 5126,
      "count": 16,
      "min": [
        -0.0333000011742115,
        0.2273000031709671,
        -0.00800000037997961
      ],
      "max": [
        0.03440000116825104,
        0.2337000072002411,
        -0.0020000000949949026
      ],
      "type": "VEC3",
      "bufferView": 0,
      "byteOffset": 12828
    },
    {
      "name": "MatrixTransform_Group_MatrixTransform_Group_0:MatrixTransform_Group_MatrixTransform_Group_0:MatrixTransform_Group_MatrixTransform_Group_0:MatrixTransform_Group_MatrixTransform_Group_0:MatrixTransform_Group_zhw_ck_GTH1000G_Geometry_3_Geometry_0_Geometry_0_Geometry_0_Geometry_0-Mesh_normals",
      "componentType": 5126,
      "count": 16,
      "min": [
        -1,
        0,
        0
      ],
      "max": [
        0.9999987483024597,
        0.0015999979805201292,
        1.9594275029671433e-19
      ],
      "type": "VEC3",
      "bufferView": 0,
      "byteOffset": 26232
    },
    {
      "name": "MatrixTransform_Group_MatrixTransform_Group_0:MatrixTransform_Group_MatrixTransform_Group_0:MatrixTransform_Group_MatrixTransform_Group_0:MatrixTransform_Group_MatrixTransform_Group_0:MatrixTransform_Group_zhw_ck_GTH1000G_Geometry_3_Geometry_0_Geometry_0_Geometry_0_Geometry_0-Mesh_texcoords",
      "componentType": 5126,
      "count": 16,
      "min": [
        0.8578000068664551,
        0.7439000010490417
      ],
      "max": [
        0.8980000019073486,
        0.8240000009536743
      ],
      "type": "VEC2",
      "bufferView": 1,
      "byteOffset": 8552
    },
    {
      "name": "MatrixTransform_Group_MatrixTransform_Group_0:MatrixTransform_Group_MatrixTransform_Group_0:MatrixTransform_Group_MatrixTransform_Group_0:MatrixTransform_Group_MatrixTransform_Group_0:MatrixTransform_Group_zhw_ck_GTH1000G_Geometry_3_Geometry_0_Geometry_0_Geometry_0_Geometry_0-Mesh_0_indices",
      "componentType": 5123,
      "count": 36,
      "min": [
        0
      ],
      "max": [
        15
      ],
      "type": "SCALAR",
      "bufferView": 2,
      "byteOffset": 4496
    },
    {
      "name": "MatrixTransform_Group_MatrixTransform_Group_0:MatrixTransform_Group_MatrixTransform_Group_0:MatrixTransform_Group_MatrixTransform_Group_0:MatrixTransform_Group_MatrixTransform_Group_0:MatrixTransform_Group_zhw_ck_GTH1000G_Geometry_4_Geometry_0_Geometry_0_Geometry_0_Geometry_0-Mesh_positions",
      "componentType": 5126,
      "count": 32,
      "min": [
        -0.061799999326467514,
        0.04490000009536743,
        0.00039999998989515007
      ],
      "max": [
        -0.06019999831914902,
        0.06270000338554382,
        0.01850000023841858
      ],
      "type": "VEC3",
      "bufferView": 0,
      "byteOffset": 13020
    },
    {
      "name": "MatrixTransform_Group_MatrixTransform_Group_0:MatrixTransform_Group_MatrixTransform_Group_0:MatrixTransform_Group_MatrixTransform_Group_0:MatrixTransform_Group_MatrixTransform_Group_0:MatrixTransform_Group_zhw_ck_GTH1000G_Geometry_4_Geometry_0_Geometry_0_Geometry_0_Geometry_0-Mesh_normals",
      "componentType": 5126,
      "count": 32,
      "min": [
        -0.6860007643699646,
        -0.6837556958198547,
        -0.7165682911872864
      ],
      "max": [
        -0.6859555244445801,
        0.7276008129119873,
        0.7165682911872864
      ],
      "type": "VEC3",
      "bufferView": 0,
      "byteOffset": 26424
    },
    {
      "name": "MatrixTransform_Group_MatrixTransform_Group_0:MatrixTransform_Group_MatrixTransform_Group_0:MatrixTransform_Group_MatrixTransform_Group_0:MatrixTransform_Group_MatrixTransform_Group_0:MatrixTransform_Group_zhw_ck_GTH1000G_Geometry_4_Geometry_0_Geometry_0_Geometry_0_Geometry_0-Mesh_texcoords",
      "componentType": 5126,
      "count": 32,
      "min": [
        0.8402000069618225,
        0.5511999726295471
      ],
      "max": [
        0.9650999903678894,
        0.7107999920845032
      ],
      "type": "VEC2",
      "bufferView": 1,
      "byteOffset": 8680
    },
    {
      "name": "MatrixTransform_Group_MatrixTransform_Group_0:MatrixTransform_Group_MatrixTransform_Group_0:MatrixTransform_Group_MatrixTransform_Group_0:MatrixTransform_Group_MatrixTransform_Group_0:MatrixTransform_Group_zhw_ck_GTH1000G_Geometry_4_Geometry_0_Geometry_0_Geometry_0_Geometry_0-Mesh_0_indices",
      "componentType": 5123,
      "count": 54,
      "min": [
        0
      ],
      "max": [
        31
      ],
      "type": "SCALAR",
      "bufferView": 2,
      "byteOffset": 4568
    }
  ],
  "asset": {
    "generator": "obj2gltf",
    "version": "2.0"
  },
  "buffers": [
    {
      "name": "GTH1000G",
      "byteLength": 612708,
      "uri": "data:application/octet-stream;base64,"
    }
  ],
  "bufferViews": [
    {
      "name": "bufferView_0",
      "buffer": 0,
      "byteLength": 26808,
      "byteOffset": 0,
      "byteStride": 12,
      "target": 34962
    },
    {
      "name": "bufferView_1",
      "buffer": 0,
      "byteLength": 8936,
      "byteOffset": 26808,
      "byteStride": 8,
      "target": 34962
    },
    {
      "name": "bufferView_2",
      "buffer": 0,
      "byteLength": 4676,
      "byteOffset": 35744,
      "target": 34963
    },
    {
      "buffer": 0,
      "byteOffset": 40420,
      "byteLength": 572287
    }
  ],
  "images": [
    {
      "name": "zhw_ck_GTH1000G",
      "mimeType": "image/jpeg",
      "bufferView": 3
    }
  ],
  "materials": [
    {
      "name": "material_1",
      "pbrMetallicRoughness": {
        "baseColorTexture": {
          "index": 0
        },
        "baseColorFactor": [
          1,
          1,
          1,
          1
        ],
        "metallicFactor": 0,
        "roughnessFactor": 1
      },
      "emissiveFactor": [
        0,
        0,
        0
      ],
      "alphaMode": "OPAQUE",
      "doubleSided": false
    }
  ],
  "meshes": [
    {
      "name": "MatrixTransform_Group_MatrixTransform_Group_0:MatrixTransform_Group_MatrixTransform_Group_0:MatrixTransform_Group_MatrixTransform_Group_0:MatrixTransform_Group_MatrixTransform_Group_0:MatrixTransform_Group_zhw_ck_GTH1000G_Geometry_0_Geometry_0_Geometry_0_Geometry_0_Geometry_0-Mesh",
      "primitives": [
        {
          "attributes": {
            "POSITION": 0,
            "NORMAL": 1,
            "TEXCOORD_0": 2
          },
          "indices": 3,
          "material": 0,
          "mode": 4
        }
      ]
    },
    {
      "name": "MatrixTransform_Group_MatrixTransform_Group_0:MatrixTransform_Group_MatrixTransform_Group_0:MatrixTransform_Group_MatrixTransform_Group_0:MatrixTransform_Group_MatrixTransform_Group_0:MatrixTransform_Group_zhw_ck_GTH1000G_Geometry_1_Geometry_0_Geometry_0_Geometry_0_Geometry_0-Mesh",
      "primitives": [
        {
          "attributes": {
            "POSITION": 4,
            "NORMAL": 5,
            "TEXCOORD_0": 6
          },
          "indices": 7,
          "material": 0,
          "mode": 4
        }
      ]
    },
    {
      "name": "MatrixTransform_Group_MatrixTransform_Group_0:MatrixTransform_Group_MatrixTransform_Group_0:MatrixTransform_Group_MatrixTransform_Group_0:MatrixTransform_Group_MatrixTransform_Group_0:MatrixTransform_Group_zhw_ck_GTH1000G_Geometry_2_Geometry_0_Geometry_0_Geometry_0_Geometry_0-Mesh",
      "primitives": [
        {
          "attributes": {
            "POSITION": 8,
            "NORMAL": 9,
            "TEXCOORD_0": 10
          },
          "indices": 11,
          "material": 0,
          "mode": 4
        }
      ]
    },
    {
      "name": "MatrixTransform_Group_MatrixTransform_Group_0:MatrixTransform_Group_MatrixTransform_Group_0:MatrixTransform_Group_MatrixTransform_Group_0:MatrixTransform_Group_MatrixTransform_Group_0:MatrixTransform_Group_zhw_ck_GTH1000G_Geometry_3_Geometry_0_Geometry_0_Geometry_0_Geometry_0-Mesh",
      "primitives": [
        {
          "attributes": {
            "POSITION": 12,
            "NORMAL": 13,
            "TEXCOORD_0": 14
          },
          "indices": 15,
          "material": 0,
          "mode": 4
        }
      ]
    },
    {
      "name": "MatrixTransform_Group_MatrixTransform_Group_0:MatrixTransform_Group_MatrixTransform_Group_0:MatrixTransform_Group_MatrixTransform_Group_0:MatrixTransform_Group_MatrixTransform_Group_0:MatrixTransform_Group_zhw_ck_GTH1000G_Geometry_4_Geometry_0_Geometry_0_Geometry_0_Geometry_0-Mesh",
      "primitives": [
        {
          "attributes": {
            "POSITION": 16,
            "NORMAL": 17,
            "TEXCOORD_0": 18
          },
          "indices": 19,
          "material": 0,
          "mode": 4
        }
      ]
    }
  ],
  "nodes": [
    {
      "name": "MatrixTransform_Group_MatrixTransform_Group_0:MatrixTransform_Group_MatrixTransform_Group_0:MatrixTransform_Group_MatrixTransform_Group_0:MatrixTransform_Group_MatrixTransform_Group_0:MatrixTransform_Group_zhw_ck_GTH1000G_Geometry_0_Geometry_0_Geometry_0_Geometry_0_Geometry_0",
      "mesh": 0
    },
    {
      "name": "MatrixTransform_Group_MatrixTransform_Group_0:MatrixTransform_Group_MatrixTransform_Group_0:MatrixTransform_Group_MatrixTransform_Group_0:MatrixTransform_Group_MatrixTransform_Group_0:MatrixTransform_Group_zhw_ck_GTH1000G_Geometry_1_Geometry_0_Geometry_0_Geometry_0_Geometry_0",
      "mesh": 1
    },
    {
      "name": "MatrixTransform_Group_MatrixTransform_Group_0:MatrixTransform_Group_MatrixTransform_Group_0:MatrixTransform_Group_MatrixTransform_Group_0:MatrixTransform_Group_MatrixTransform_Group_0:MatrixTransform_Group_zhw_ck_GTH1000G_Geometry_2_Geometry_0_Geometry_0_Geometry_0_Geometry_0",
      "mesh": 2
    },
    {
      "name": "MatrixTransform_Group_MatrixTransform_Group_0:MatrixTransform_Group_MatrixTransform_Group_0:MatrixTransform_Group_MatrixTransform_Group_0:MatrixTransform_Group_MatrixTransform_Group_0:MatrixTransform_Group_zhw_ck_GTH1000G_Geometry_3_Geometry_0_Geometry_0_Geometry_0_Geometry_0",
      "mesh": 3
    },
    {
      "name": "MatrixTransform_Group_MatrixTransform_Group_0:MatrixTransform_Group_MatrixTransform_Group_0:MatrixTransform_Group_MatrixTransform_Group_0:MatrixTransform_Group_MatrixTransform_Group_0:MatrixTransform_Group_zhw_ck_GTH1000G_Geometry_4_Geometry_0_Geometry_0_Geometry_0_Geometry_0",
      "mesh": 4
    }
  ],
  "samplers": [
    {
      "magFilter": 9729,
      "minFilter": 9986,
      "wrapS": 10497,
      "wrapT": 10497
    }
  ],
  "scene": 0,
  "scenes": [
    {
      "nodes": [
        0,
        1,
        2,
        3,
        4
      ]
    }
  ],
  "textures": [
    {
      "name": "zhw_ck_GTH1000G",
      "sampler": 0,
      "source": 0
    }
  ]
}
