{
  "accessors": [
    {
      "name": "MatrixTransform_Group_MatrixTransform_Group_0:MatrixTransform_Group_MatrixTransform_Group_0:MatrixTransform_Group_MatrixTransform_Group_0:MatrixTransform_Group_MatrixTransform_Group_0:MatrixTransform_Group_zhw_ck__GWD200_Geometry_0_Geometry_0_Geometry_0_Geometry_0_Geometry_0-Mesh_positions",
      "componentType": 5126,
      "count": 748,
      "min": [
        -0.06360000371932983,
        0.005799999926239252,
        -0.022099999710917473
      ],
      "max": [
        0.06379999965429306,
        0.3018999993801117,
        0.021900000050663948
      ],
      "type": "VEC3",
      "bufferView": 0,
      "byteOffset": 0
    },
    {
      "name": "MatrixTransform_Group_MatrixTransform_Group_0:MatrixTransform_Group_MatrixTransform_Group_0:MatrixTransform_Group_MatrixTransform_Group_0:MatrixTransform_Group_MatrixTransform_Group_0:MatrixTransform_Group_zhw_ck__GWD200_Geometry_0_Geometry_0_Geometry_0_Geometry_0_Geometry_0-Mesh_normals",
      "componentType": 5126,
      "count": 748,
      "min": [
        -1,
        -1,
        -1
      ],
      "max": [
        1,
        1,
        1
      ],
      "type": "VEC3",
      "bufferView": 0,
      "byteOffset": 18912
    },
    {
      "name": "MatrixTransform_Group_MatrixTransform_Group_0:MatrixTransform_Group_MatrixTransform_Group_0:MatrixTransform_Group_MatrixTransform_Group_0:MatrixTransform_Group_MatrixTransform_Group_0:MatrixTransform_Group_zhw_ck__GWD200_Geometry_0_Geometry_0_Geometry_0_Geometry_0_Geometry_0-Mesh_texcoords",
      "componentType": 5126,
      "count": 748,
      "min": [
        0.019899999722838402,
        0.009800000116229057
      ],
      "max": [
        0.9997000098228455,
        0.9897000193595886
      ],
      "type": "VEC2",
      "bufferView": 1,
      "byteOffset": 0
    },
    {
      "name": "MatrixTransform_Group_MatrixTransform_Group_0:MatrixTransform_Group_MatrixTransform_Group_0:MatrixTransform_Group_MatrixTransform_Group_0:MatrixTransform_Group_MatrixTransform_Group_0:MatrixTransform_Group_zhw_ck__GWD200_Geometry_0_Geometry_0_Geometry_0_Geometry_0_Geometry_0-Mesh_0_indices",
      "componentType": 5123,
      "count": 1320,
      "min": [
        0
      ],
      "max": [
        747
      ],
      "type": "SCALAR",
      "bufferView": 2,
      "byteOffset": 0
    },
    {
      "name": "MatrixTransform_Group_MatrixTransform_Group_0:MatrixTransform_Group_MatrixTransform_Group_0:MatrixTransform_Group_MatrixTransform_Group_0:MatrixTransform_Group_MatrixTransform_Group_0:MatrixTransform_Group_zhw_ck__GWD200_Geometry_1_Geometry_0_Geometry_0_Geometry_0_Geometry_0-Mesh_positions",
      "componentType": 5126,
      "count": 428,
      "min": [
        -0.06360000371932983,
        0.0010000000474974513,
        -0.022099999710917473
      ],
      "max": [
        0.06379999965429306,
        0.31049999594688416,
        0.01730000041425228
      ],
      "type": "VEC3",
      "bufferView": 0,
      "byteOffset": 8976
    },
    {
      "name": "MatrixTransform_Group_MatrixTransform_Group_0:MatrixTransform_Group_MatrixTransform_Group_0:MatrixTransform_Group_MatrixTransform_Group_0:MatrixTransform_Group_MatrixTransform_Group_0:MatrixTransform_Group_zhw_ck__GWD200_Geometry_1_Geometry_0_Geometry_0_Geometry_0_Geometry_0-Mesh_normals",
      "componentType": 5126,
      "count": 428,
      "min": [
        -1,
        -1,
        -1
      ],
      "max": [
        1,
        0.9916965961456299,
        0.9914475083351135
      ],
      "type": "VEC3",
      "bufferView": 0,
      "byteOffset": 27888
    },
    {
      "name": "MatrixTransform_Group_MatrixTransform_Group_0:MatrixTransform_Group_MatrixTransform_Group_0:MatrixTransform_Group_MatrixTransform_Group_0:MatrixTransform_Group_MatrixTransform_Group_0:MatrixTransform_Group_zhw_ck__GWD200_Geometry_1_Geometry_0_Geometry_0_Geometry_0_Geometry_0-Mesh_texcoords",
      "componentType": 5126,
      "count": 428,
      "min": [
        0.3294000029563904,
        0.013799999840557575
      ],
      "max": [
        0.9934999942779541,
        0.9898999929428101
      ],
      "type": "VEC2",
      "bufferView": 1,
      "byteOffset": 5984
    },
    {
      "name": "MatrixTransform_Group_MatrixTransform_Group_0:MatrixTransform_Group_MatrixTransform_Group_0:MatrixTransform_Group_MatrixTransform_Group_0:MatrixTransform_Group_MatrixTransform_Group_0:MatrixTransform_Group_zhw_ck__GWD200_Geometry_1_Geometry_0_Geometry_0_Geometry_0_Geometry_0-Mesh_0_indices",
      "componentType": 5123,
      "count": 1116,
      "min": [
        0
      ],
      "max": [
        427
      ],
      "type": "SCALAR",
      "bufferView": 2,
      "byteOffset": 2640
    },
    {
      "name": "MatrixTransform_Group_MatrixTransform_Group_0:MatrixTransform_Group_MatrixTransform_Group_0:MatrixTransform_Group_MatrixTransform_Group_0:MatrixTransform_Group_MatrixTransform_Group_0:MatrixTransform_Group_zhw_ck__GWD200_Geometry_2_Geometry_0_Geometry_0_Geometry_0_Geometry_0-Mesh_positions",
      "componentType": 5126,
      "count": 270,
      "min": [
        -0.03370000049471855,
        0.0010000000474974513,
        -0.007699999958276749
      ],
      "max": [
        0.039799999445676804,
        0.31049999594688416,
        0.010700000450015068
      ],
      "type": "VEC3",
      "bufferView": 0,
      "byteOffset": 14112
    },
    {
      "name": "MatrixTransform_Group_MatrixTransform_Group_0:MatrixTransform_Group_MatrixTransform_Group_0:MatrixTransform_Group_MatrixTransform_Group_0:MatrixTransform_Group_MatrixTransform_Group_0:MatrixTransform_Group_zhw_ck__GWD200_Geometry_2_Geometry_0_Geometry_0_Geometry_0_Geometry_0-Mesh_normals",
      "componentType": 5126,
      "count": 270,
      "min": [
        -0.984815776348114,
        -0.9238766431808472,
        -1
      ],
      "max": [
        0.984815776348114,
        0.9238766431808472,
        1
      ],
      "type": "VEC3",
      "bufferView": 0,
      "byteOffset": 33024
    },
    {
      "name": "MatrixTransform_Group_MatrixTransform_Group_0:MatrixTransform_Group_MatrixTransform_Group_0:MatrixTransform_Group_MatrixTransform_Group_0:MatrixTransform_Group_MatrixTransform_Group_0:MatrixTransform_Group_zhw_ck__GWD200_Geometry_2_Geometry_0_Geometry_0_Geometry_0_Geometry_0-Mesh_texcoords",
      "componentType": 5126,
      "count": 270,
      "min": [
        0.8320000171661377,
        0.4733000099658966
      ],
      "max": [
        0.9934999942779541,
        0.9259999990463257
      ],
      "type": "VEC2",
      "bufferView": 1,
      "byteOffset": 9408
    },
    {
      "name": "MatrixTransform_Group_MatrixTransform_Group_0:MatrixTransform_Group_MatrixTransform_Group_0:MatrixTransform_Group_MatrixTransform_Group_0:MatrixTransform_Group_MatrixTransform_Group_0:MatrixTransform_Group_zhw_ck__GWD200_Geometry_2_Geometry_0_Geometry_0_Geometry_0_Geometry_0-Mesh_0_indices",
      "componentType": 5123,
      "count": 636,
      "min": [
        0
      ],
      "max": [
        269
      ],
      "type": "SCALAR",
      "bufferView": 2,
      "byteOffset": 4872
    },
    {
      "name": "MatrixTransform_Group_MatrixTransform_Group_0:MatrixTransform_Group_MatrixTransform_Group_0:MatrixTransform_Group_MatrixTransform_Group_0:MatrixTransform_Group_MatrixTransform_Group_0:MatrixTransform_Group_zhw_ck__GWD200_Geometry_3_Geometry_0_Geometry_0_Geometry_0_Geometry_0-Mesh_positions",
      "componentType": 5126,
      "count": 72,
      "min": [
        -0.04170000180602074,
        0.0010000000474974513,
        -0.007699999958276749
      ],
      "max": [
        0.03929999843239784,
        0.3003000020980835,
        0.022700000554323196
      ],
      "type": "VEC3",
      "bufferView": 0,
      "byteOffset": 17352
    },
    {
      "name": "MatrixTransform_Group_MatrixTransform_Group_0:MatrixTransform_Group_MatrixTransform_Group_0:MatrixTransform_Group_MatrixTransform_Group_0:MatrixTransform_Group_MatrixTransform_Group_0:MatrixTransform_Group_zhw_ck__GWD200_Geometry_3_Geometry_0_Geometry_0_Geometry_0_Geometry_0-Mesh_normals",
      "componentType": 5126,
      "count": 72,
      "min": [
        -1,
        -1,
        -1.22465002895872e-16
      ],
      "max": [
        0.9999987483024597,
        1,
        1
      ],
      "type": "VEC3",
      "bufferView": 0,
      "byteOffset": 36264
    },
    {
      "name": "MatrixTransform_Group_MatrixTransform_Group_0:MatrixTransform_Group_MatrixTransform_Group_0:MatrixTransform_Group_MatrixTransform_Group_0:MatrixTransform_Group_MatrixTransform_Group_0:MatrixTransform_Group_zhw_ck__GWD200_Geometry_3_Geometry_0_Geometry_0_Geometry_0_Geometry_0-Mesh_texcoords",
      "componentType": 5126,
      "count": 72,
      "min": [
        0.019200000911951065,
        0.45350000262260437
      ],
      "max": [
        0.986299991607666,
        0.9843000173568726
      ],
      "type": "VEC2",
      "bufferView": 1,
      "byteOffset": 11568
    },
    {
      "name": "MatrixTransform_Group_MatrixTransform_Group_0:MatrixTransform_Group_MatrixTransform_Group_0:MatrixTransform_Group_MatrixTransform_Group_0:MatrixTransform_Group_MatrixTransform_Group_0:MatrixTransform_Group_zhw_ck__GWD200_Geometry_3_Geometry_0_Geometry_0_Geometry_0_Geometry_0-Mesh_0_indices",
      "componentType": 5123,
      "count": 186,
      "min": [
        0
      ],
      "max": [
        71
      ],
      "type": "SCALAR",
      "bufferView": 2,
      "byteOffset": 6144
    },
    {
      "name": "MatrixTransform_Group_MatrixTransform_Group_0:MatrixTransform_Group_MatrixTransform_Group_0:MatrixTransform_Group_MatrixTransform_Group_0:MatrixTransform_Group_MatrixTransform_Group_0:MatrixTransform_Group_zhw_ck__GWD200_Geometry_4_Geometry_0_Geometry_0_Geometry_0_Geometry_0-Mesh_positions",
      "componentType": 5126,
      "count": 58,
      "min": [
        -0.062199998646974564,
        0.005799999926239252,
        -0.0020000000949949026
      ],
      "max": [
        0.026900000870227814,
        0.12929999828338623,
        0.018799999728798866
      ],
      "type": "VEC3",
      "bufferView": 0,
      "byteOffset": 18216
    },
    {
      "name": "MatrixTransform_Group_MatrixTransform_Group_0:MatrixTransform_Group_MatrixTransform_Group_0:MatrixTransform_Group_MatrixTransform_Group_0:MatrixTransform_Group_MatrixTransform_Group_0:MatrixTransform_Group_zhw_ck__GWD200_Geometry_4_Geometry_0_Geometry_0_Geometry_0_Geometry_0-Mesh_normals",
      "componentType": 5126,
      "count": 58,
      "min": [
        -0.9995794296264648,
        -0.907217264175415,
        -0.7165682911872864
      ],
      "max": [
        -0.3753071427345276,
        0.7276008129119873,
        0.7165682911872864
      ],
      "type": "VEC3",
      "bufferView": 0,
      "byteOffset": 37128
    },
    {
      "name": "MatrixTransform_Group_MatrixTransform_Group_0:MatrixTransform_Group_MatrixTransform_Group_0:MatrixTransform_Group_MatrixTransform_Group_0:MatrixTransform_Group_MatrixTransform_Group_0:MatrixTransform_Group_zhw_ck__GWD200_Geometry_4_Geometry_0_Geometry_0_Geometry_0_Geometry_0-Mesh_texcoords",
      "componentType": 5126,
      "count": 58,
      "min": [
        0.9106000065803528,
        0.5932000279426575
      ],
      "max": [
        0.9951000213623047,
        0.7911999821662903
      ],
      "type": "VEC2",
      "bufferView": 1,
      "byteOffset": 12144
    },
    {
      "name": "MatrixTransform_Group_MatrixTransform_Group_0:MatrixTransform_Group_MatrixTransform_Group_0:MatrixTransform_Group_MatrixTransform_Group_0:MatrixTransform_Group_MatrixTransform_Group_0:MatrixTransform_Group_zhw_ck__GWD200_Geometry_4_Geometry_0_Geometry_0_Geometry_0_Geometry_0-Mesh_0_indices",
      "componentType": 5123,
      "count": 108,
      "min": [
        0
      ],
      "max": [
        57
      ],
      "type": "SCALAR",
      "bufferView": 2,
      "byteOffset": 6516
    }
  ],
  "asset": {
    "generator": "obj2gltf",
    "version": "2.0"
  },
  "buffers": [
    {
      "name": "GWD200",
      "byteLength": 618436,
      "uri": "data:application/octet-stream;base64,"
    }
  ],
  "bufferViews": [
    {
      "name": "bufferView_0",
      "buffer": 0,
      "byteLength": 37824,
      "byteOffset": 0,
      "byteStride": 12,
      "target": 34962
    },
    {
      "name": "bufferView_1",
      "buffer": 0,
      "byteLength": 12608,
      "byteOffset": 37824,
      "byteStride": 8,
      "target": 34962
    },
    {
      "name": "bufferView_2",
      "buffer": 0,
      "byteLength": 6732,
      "byteOffset": 50432,
      "target": 34963
    },
    {
      "buffer": 0,
      "byteOffset": 57164,
      "byteLength": 561272
    }
  ],
  "images": [
    {
      "name": "zhw_GWD200_tt",
      "mimeType": "image/jpeg",
      "bufferView": 3
    }
  ],
  "materials": [
    {
      "name": "material_1",
      "pbrMetallicRoughness": {
        "baseColorTexture": {
          "index": 0
        },
        "baseColorFactor": [
          1,
          1,
          1,
          1
        ],
        "metallicFactor": 0,
        "roughnessFactor": 1
      },
      "emissiveFactor": [
        0,
        0,
        0
      ],
      "alphaMode": "OPAQUE",
      "doubleSided": false
    }
  ],
  "meshes": [
    {
      "name": "MatrixTransform_Group_MatrixTransform_Group_0:MatrixTransform_Group_MatrixTransform_Group_0:MatrixTransform_Group_MatrixTransform_Group_0:MatrixTransform_Group_MatrixTransform_Group_0:MatrixTransform_Group_zhw_ck__GWD200_Geometry_0_Geometry_0_Geometry_0_Geometry_0_Geometry_0-Mesh",
      "primitives": [
        {
          "attributes": {
            "POSITION": 0,
            "NORMAL": 1,
            "TEXCOORD_0": 2
          },
          "indices": 3,
          "material": 0,
          "mode": 4
        }
      ]
    },
    {
      "name": "MatrixTransform_Group_MatrixTransform_Group_0:MatrixTransform_Group_MatrixTransform_Group_0:MatrixTransform_Group_MatrixTransform_Group_0:MatrixTransform_Group_MatrixTransform_Group_0:MatrixTransform_Group_zhw_ck__GWD200_Geometry_1_Geometry_0_Geometry_0_Geometry_0_Geometry_0-Mesh",
      "primitives": [
        {
          "attributes": {
            "POSITION": 4,
            "NORMAL": 5,
            "TEXCOORD_0": 6
          },
          "indices": 7,
          "material": 0,
          "mode": 4
        }
      ]
    },
    {
      "name": "MatrixTransform_Group_MatrixTransform_Group_0:MatrixTransform_Group_MatrixTransform_Group_0:MatrixTransform_Group_MatrixTransform_Group_0:MatrixTransform_Group_MatrixTransform_Group_0:MatrixTransform_Group_zhw_ck__GWD200_Geometry_2_Geometry_0_Geometry_0_Geometry_0_Geometry_0-Mesh",
      "primitives": [
        {
          "attributes": {
            "POSITION": 8,
            "NORMAL": 9,
            "TEXCOORD_0": 10
          },
          "indices": 11,
          "material": 0,
          "mode": 4
        }
      ]
    },
    {
      "name": "MatrixTransform_Group_MatrixTransform_Group_0:MatrixTransform_Group_MatrixTransform_Group_0:MatrixTransform_Group_MatrixTransform_Group_0:MatrixTransform_Group_MatrixTransform_Group_0:MatrixTransform_Group_zhw_ck__GWD200_Geometry_3_Geometry_0_Geometry_0_Geometry_0_Geometry_0-Mesh",
      "primitives": [
        {
          "attributes": {
            "POSITION": 12,
            "NORMAL": 13,
            "TEXCOORD_0": 14
          },
          "indices": 15,
          "material": 0,
          "mode": 4
        }
      ]
    },
    {
      "name": "MatrixTransform_Group_MatrixTransform_Group_0:MatrixTransform_Group_MatrixTransform_Group_0:MatrixTransform_Group_MatrixTransform_Group_0:MatrixTransform_Group_MatrixTransform_Group_0:MatrixTransform_Group_zhw_ck__GWD200_Geometry_4_Geometry_0_Geometry_0_Geometry_0_Geometry_0-Mesh",
      "primitives": [
        {
          "attributes": {
            "POSITION": 16,
            "NORMAL": 17,
            "TEXCOORD_0": 18
          },
          "indices": 19,
          "material": 0,
          "mode": 4
        }
      ]
    }
  ],
  "nodes": [
    {
      "name": "MatrixTransform_Group_MatrixTransform_Group_0:MatrixTransform_Group_MatrixTransform_Group_0:MatrixTransform_Group_MatrixTransform_Group_0:MatrixTransform_Group_MatrixTransform_Group_0:MatrixTransform_Group_zhw_ck__GWD200_Geometry_0_Geometry_0_Geometry_0_Geometry_0_Geometry_0",
      "mesh": 0
    },
    {
      "name": "MatrixTransform_Group_MatrixTransform_Group_0:MatrixTransform_Group_MatrixTransform_Group_0:MatrixTransform_Group_MatrixTransform_Group_0:MatrixTransform_Group_MatrixTransform_Group_0:MatrixTransform_Group_zhw_ck__GWD200_Geometry_1_Geometry_0_Geometry_0_Geometry_0_Geometry_0",
      "mesh": 1
    },
    {
      "name": "MatrixTransform_Group_MatrixTransform_Group_0:MatrixTransform_Group_MatrixTransform_Group_0:MatrixTransform_Group_MatrixTransform_Group_0:MatrixTransform_Group_MatrixTransform_Group_0:MatrixTransform_Group_zhw_ck__GWD200_Geometry_2_Geometry_0_Geometry_0_Geometry_0_Geometry_0",
      "mesh": 2
    },
    {
      "name": "MatrixTransform_Group_MatrixTransform_Group_0:MatrixTransform_Group_MatrixTransform_Group_0:MatrixTransform_Group_MatrixTransform_Group_0:MatrixTransform_Group_MatrixTransform_Group_0:MatrixTransform_Group_zhw_ck__GWD200_Geometry_3_Geometry_0_Geometry_0_Geometry_0_Geometry_0",
      "mesh": 3
    },
    {
      "name": "MatrixTransform_Group_MatrixTransform_Group_0:MatrixTransform_Group_MatrixTransform_Group_0:MatrixTransform_Group_MatrixTransform_Group_0:MatrixTransform_Group_MatrixTransform_Group_0:MatrixTransform_Group_zhw_ck__GWD200_Geometry_4_Geometry_0_Geometry_0_Geometry_0_Geometry_0",
      "mesh": 4
    }
  ],
  "samplers": [
    {
      "magFilter": 9729,
      "minFilter": 9986,
      "wrapS": 10497,
      "wrapT": 10497
    }
  ],
  "scene": 0,
  "scenes": [
    {
      "nodes": [
        0,
        1,
        2,
        3,
        4
      ]
    }
  ],
  "textures": [
    {
      "name": "zhw_GWD200_tt",
      "sampler": 0,
      "source": 0
    }
  ]
}
