{
  "accessors": [
    {
      "name": "MatrixTransform_Group_MatrixTransform_Group_0:MatrixTransform_Group_MatrixTransform_Group_0:MatrixTransform_Group_kg_rydw_look01_Geometry_0_Geometry_0_Geometry_0-Mesh_positions",
      "componentType": 5126,
      "count": 24,
      "min": [
        -0.08869999647140503,
        1.3391000032424927,
        0.04019999876618385
      ],
      "max": [
        0.07819999754428864,
        1.6512999534606934,
        0.1306000053882599
      ],
      "type": "VEC3",
      "bufferView": 0,
      "byteOffset": 0
    },
    {
      "name": "MatrixTransform_Group_MatrixTransform_Group_0:MatrixTransform_Group_MatrixTransform_Group_0:MatrixTransform_Group_kg_rydw_look01_Geometry_0_Geometry_0_Geometry_0-Mesh_normals",
      "componentType": 5126,
      "count": 24,
      "min": [
        -0.9150188565254211,
        -0.8444872498512268,
        -0.8799230456352234
      ],
      "max": [
        0.7100992202758789,
        0.5986679196357727,
        0.686713457107544
      ],
      "type": "VEC3",
      "bufferView": 0,
      "byteOffset": 43068
    },
    {
      "name": "MatrixTransform_Group_MatrixTransform_Group_0:MatrixTransform_Group_MatrixTransform_Group_0:MatrixTransform_Group_kg_rydw_look01_Geometry_0_Geometry_0_Geometry_0-Mesh_texcoords",
      "componentType": 5126,
      "count": 24,
      "min": [
        0.2029999941587448,
        0.17100000381469727
      ],
      "max": [
        0.4936000108718872,
        0.9532999992370605
      ],
      "type": "VEC2",
      "bufferView": 1,
      "byteOffset": 0
    },
    {
      "name": "MatrixTransform_Group_MatrixTransform_Group_0:MatrixTransform_Group_MatrixTransform_Group_0:MatrixTransform_Group_kg_rydw_look01_Geometry_0_Geometry_0_Geometry_0-Mesh_0_indices",
      "componentType": 5123,
      "count": 24,
      "min": [
        0
      ],
      "max": [
        23
      ],
      "type": "SCALAR",
      "bufferView": 2,
      "byteOffset": 0
    },
    {
      "name": "MatrixTransform_Group_MatrixTransform_Group_0:MatrixTransform_Group_MatrixTransform_Group_0:MatrixTransform_Group_kg_rydw_look01_Geometry_1_Geometry_0_Geometry_0-Mesh_positions",
      "componentType": 5126,
      "count": 2647,
      "min": [
        -0.3395000100135803,
        -0.00570000009611249,
        -0.1688999980688095
      ],
      "max": [
        0.3301999866962433,
        1.7857999801635742,
        0.24009999632835388
      ],
      "type": "VEC3",
      "bufferView": 0,
      "byteOffset": 288
    },
    {
      "name": "MatrixTransform_Group_MatrixTransform_Group_0:MatrixTransform_Group_MatrixTransform_Group_0:MatrixTransform_Group_kg_rydw_look01_Geometry_1_Geometry_0_Geometry_0-Mesh_normals",
      "componentType": 5126,
      "count": 2647,
      "min": [
        -0.9979494214057922,
        -0.9977222681045532,
        -0.9998155832290649
      ],
      "max": [
        0.9985007047653198,
        0.9994790554046631,
        0.9999557733535767
      ],
      "type": "VEC3",
      "bufferView": 0,
      "byteOffset": 43356
    },
    {
      "name": "MatrixTransform_Group_MatrixTransform_Group_0:MatrixTransform_Group_MatrixTransform_Group_0:MatrixTransform_Group_kg_rydw_look01_Geometry_1_Geometry_0_Geometry_0-Mesh_texcoords",
      "componentType": 5126,
      "count": 2647,
      "min": [
        0.0008999999845400453,
        0.0020000000949949026
      ],
      "max": [
        0.9952999949455261,
        0.9965999722480774
      ],
      "type": "VEC2",
      "bufferView": 1,
      "byteOffset": 192
    },
    {
      "name": "MatrixTransform_Group_MatrixTransform_Group_0:MatrixTransform_Group_MatrixTransform_Group_0:MatrixTransform_Group_kg_rydw_look01_Geometry_1_Geometry_0_Geometry_0-Mesh_0_indices",
      "componentType": 5123,
      "count": 11451,
      "min": [
        0
      ],
      "max": [
        2646
      ],
      "type": "SCALAR",
      "bufferView": 2,
      "byteOffset": 48
    },
    {
      "name": "MatrixTransform_Group_MatrixTransform_Group_0:MatrixTransform_Group_MatrixTransform_Group_0:MatrixTransform_Group_kg_rydw_look01_Geometry_2_Geometry_0_Geometry_0-Mesh_positions",
      "componentType": 5126,
      "count": 734,
      "min": [
        -0.33629998564720154,
        -0.00570000009611249,
        -0.15780000388622284
      ],
      "max": [
        0.3310000002384186,
        1.7857999801635742,
        0.24009999632835388
      ],
      "type": "VEC3",
      "bufferView": 0,
      "byteOffset": 32052
    },
    {
      "name": "MatrixTransform_Group_MatrixTransform_Group_0:MatrixTransform_Group_MatrixTransform_Group_0:MatrixTransform_Group_kg_rydw_look01_Geometry_2_Geometry_0_Geometry_0-Mesh_normals",
      "componentType": 5126,
      "count": 734,
      "min": [
        -0.9991374015808105,
        -0.9998712539672852,
        -0.9988499879837036
      ],
      "max": [
        0.9995552897453308,
        0.9861392378807068,
        0.9961509704589844
      ],
      "type": "VEC3",
      "bufferView": 0,
      "byteOffset": 75120
    },
    {
      "name": "MatrixTransform_Group_MatrixTransform_Group_0:MatrixTransform_Group_MatrixTransform_Group_0:MatrixTransform_Group_kg_rydw_look01_Geometry_2_Geometry_0_Geometry_0-Mesh_texcoords",
      "componentType": 5126,
      "count": 734,
      "min": [
        0.004100000020116568,
        0.17100000381469727
      ],
      "max": [
        0.9988999962806702,
        0.9959999918937683
      ],
      "type": "VEC2",
      "bufferView": 1,
      "byteOffset": 21368
    },
    {
      "name": "MatrixTransform_Group_MatrixTransform_Group_0:MatrixTransform_Group_MatrixTransform_Group_0:MatrixTransform_Group_kg_rydw_look01_Geometry_2_Geometry_0_Geometry_0-Mesh_0_indices",
      "componentType": 5123,
      "count": 2304,
      "min": [
        0
      ],
      "max": [
        733
      ],
      "type": "SCALAR",
      "bufferView": 2,
      "byteOffset": 22952
    },
    {
      "name": "MatrixTransform_Group_MatrixTransform_Group_0:MatrixTransform_Group_MatrixTransform_Group_0:MatrixTransform_Group_kg_rydw_look01_Geometry_3_Geometry_0_Geometry_0-Mesh_positions",
      "componentType": 5126,
      "count": 15,
      "min": [
        -0.06430000066757202,
        1.562000036239624,
        -0.00039999998989515007
      ],
      "max": [
        0.09160000085830688,
        1.6512999534606934,
        0.09749999642372131
      ],
      "type": "VEC3",
      "bufferView": 0,
      "byteOffset": 40860
    },
    {
      "name": "MatrixTransform_Group_MatrixTransform_Group_0:MatrixTransform_Group_MatrixTransform_Group_0:MatrixTransform_Group_kg_rydw_look01_Geometry_3_Geometry_0_Geometry_0-Mesh_normals",
      "componentType": 5126,
      "count": 15,
      "min": [
        -0.8897236585617065,
        -0.7025189995765686,
        -0.9527611136436462
      ],
      "max": [
        0.8772969841957092,
        0.9824129343032837,
        0.8080277442932129
      ],
      "type": "VEC3",
      "bufferView": 0,
      "byteOffset": 83928
    },
    {
      "name": "MatrixTransform_Group_MatrixTransform_Group_0:MatrixTransform_Group_MatrixTransform_Group_0:MatrixTransform_Group_kg_rydw_look01_Geometry_3_Geometry_0_Geometry_0-Mesh_texcoords",
      "componentType": 5126,
      "count": 15,
      "min": [
        0.31700000166893005,
        0.17100000381469727
      ],
      "max": [
        0.4691999852657318,
        0.32589998841285706
      ],
      "type": "VEC2",
      "bufferView": 1,
      "byteOffset": 27240
    },
    {
      "name": "MatrixTransform_Group_MatrixTransform_Group_0:MatrixTransform_Group_MatrixTransform_Group_0:MatrixTransform_Group_kg_rydw_look01_Geometry_3_Geometry_0_Geometry_0-Mesh_0_indices",
      "componentType": 5123,
      "count": 18,
      "min": [
        0
      ],
      "max": [
        14
      ],
      "type": "SCALAR",
      "bufferView": 2,
      "byteOffset": 27560
    },
    {
      "name": "MatrixTransform_Group_MatrixTransform_Group_0:MatrixTransform_Group_MatrixTransform_Group_0:MatrixTransform_Group_kg_rydw_look01_Geometry_4_Geometry_0_Geometry_0-Mesh_positions",
      "componentType": 5126,
      "count": 157,
      "min": [
        -0.2354000061750412,
        -0.003599999938160181,
        -0.15780000388622284
      ],
      "max": [
        0.16279999911785126,
        1.747499942779541,
        0.20720000565052032
      ],
      "type": "VEC3",
      "bufferView": 0,
      "byteOffset": 41040
    },
    {
      "name": "MatrixTransform_Group_MatrixTransform_Group_0:MatrixTransform_Group_MatrixTransform_Group_0:MatrixTransform_Group_kg_rydw_look01_Geometry_4_Geometry_0_Geometry_0-Mesh_normals",
      "componentType": 5126,
      "count": 157,
      "min": [
        -0.965990424156189,
        -0.9998873472213745,
        -0.9833199977874756
      ],
      "max": [
        0.8984019160270691,
        0.9995255470275879,
        0.8821090459823608
      ],
      "type": "VEC3",
      "bufferView": 0,
      "byteOffset": 84108
    },
    {
      "name": "MatrixTransform_Group_MatrixTransform_Group_0:MatrixTransform_Group_MatrixTransform_Group_0:MatrixTransform_Group_kg_rydw_look01_Geometry_4_Geometry_0_Geometry_0-Mesh_texcoords",
      "componentType": 5126,
      "count": 157,
      "min": [
        0.007400000002235174,
        0.5088000297546387
      ],
      "max": [
        0.6858999729156494,
        0.9970999956130981
      ],
      "type": "VEC2",
      "bufferView": 1,
      "byteOffset": 27360
    },
    {
      "name": "MatrixTransform_Group_MatrixTransform_Group_0:MatrixTransform_Group_MatrixTransform_Group_0:MatrixTransform_Group_kg_rydw_look01_Geometry_4_Geometry_0_Geometry_0-Mesh_0_indices",
      "componentType": 5123,
      "count": 366,
      "min": [
        0
      ],
      "max": [
        156
      ],
      "type": "SCALAR",
      "bufferView": 2,
      "byteOffset": 27596
    },
    {
      "name": "MatrixTransform_Group_MatrixTransform_Group_0:MatrixTransform_Group_MatrixTransform_Group_0:MatrixTransform_Group_kg_rydw_look01_Geometry_5_Geometry_0_Geometry_0-Mesh_positions",
      "componentType": 5126,
      "count": 12,
      "min": [
        -0.03799999877810478,
        1.7331000566482544,
        0.17829999327659607
      ],
      "max": [
        -0.021700000390410423,
        1.7527999877929688,
        0.22290000319480896
      ],
      "type": "VEC3",
      "bufferView": 0,
      "byteOffset": 42924
    },
    {
      "name": "MatrixTransform_Group_MatrixTransform_Group_0:MatrixTransform_Group_MatrixTransform_Group_0:MatrixTransform_Group_kg_rydw_look01_Geometry_5_Geometry_0_Geometry_0-Mesh_normals",
      "componentType": 5126,
      "count": 12,
      "min": [
        -0.13210003077983856,
        0.6102896928787231,
        -0.5924898386001587
      ],
      "max": [
        0.06589843332767487,
        0.9869655966758728,
        0.7810868620872498
      ],
      "type": "VEC3",
      "bufferView": 0,
      "byteOffset": 85992
    },
    {
      "name": "MatrixTransform_Group_MatrixTransform_Group_0:MatrixTransform_Group_MatrixTransform_Group_0:MatrixTransform_Group_kg_rydw_look01_Geometry_5_Geometry_0_Geometry_0-Mesh_texcoords",
      "componentType": 5126,
      "count": 12,
      "min": [
        0.661300003528595,
        0.8628000020980835
      ],
      "max": [
        0.6729000210762024,
        0.8765000104904175
      ],
      "type": "VEC2",
      "bufferView": 1,
      "byteOffset": 28616
    },
    {
      "name": "MatrixTransform_Group_MatrixTransform_Group_0:MatrixTransform_Group_MatrixTransform_Group_0:MatrixTransform_Group_kg_rydw_look01_Geometry_5_Geometry_0_Geometry_0-Mesh_0_indices",
      "componentType": 5123,
      "count": 24,
      "min": [
        0
      ],
      "max": [
        11
      ],
      "type": "SCALAR",
      "bufferView": 2,
      "byteOffset": 28328
    }
  ],
  "asset": {
    "generator": "obj2gltf",
    "version": "2.0"
  },
  "buffers": [
    {
      "name": "kg_rydw_cjgb",
      "byteLength": 1391864,
      "uri": "data:application/octet-stream;base64,"
    }
  ],
  "bufferViews": [
    {
      "name": "bufferView_0",
      "buffer": 0,
      "byteLength": 86136,
      "byteOffset": 0,
      "byteStride": 12,
      "target": 34962
    },
    {
      "name": "bufferView_1",
      "buffer": 0,
      "byteLength": 28712,
      "byteOffset": 86136,
      "byteStride": 8,
      "target": 34962
    },
    {
      "name": "bufferView_2",
      "buffer": 0,
      "byteLength": 28376,
      "byteOffset": 114848,
      "target": 34963
    },
    {
      "buffer": 0,
      "byteOffset": 143224,
      "byteLength": 1248638
    }
  ],
  "images": [
    {
      "name": "kg_rydw_cjgb",
      "mimeType": "image/png",
      "bufferView": 3
    }
  ],
  "materials": [
    {
      "name": "material_1",
      "pbrMetallicRoughness": {
        "baseColorTexture": {
          "index": 0
        },
        "baseColorFactor": [
          1,
          1,
          1,
          1
        ],
        "metallicFactor": 0,
        "roughnessFactor": 1
      },
      "emissiveFactor": [
        0,
        0,
        0
      ],
      "alphaMode": "OPAQUE",
      "doubleSided": false
    }
  ],
  "meshes": [
    {
      "name": "MatrixTransform_Group_MatrixTransform_Group_0:MatrixTransform_Group_MatrixTransform_Group_0:MatrixTransform_Group_kg_rydw_look01_Geometry_0_Geometry_0_Geometry_0-Mesh",
      "primitives": [
        {
          "attributes": {
            "POSITION": 0,
            "NORMAL": 1,
            "TEXCOORD_0": 2
          },
          "indices": 3,
          "material": 0,
          "mode": 4
        }
      ]
    },
    {
      "name": "MatrixTransform_Group_MatrixTransform_Group_0:MatrixTransform_Group_MatrixTransform_Group_0:MatrixTransform_Group_kg_rydw_look01_Geometry_1_Geometry_0_Geometry_0-Mesh",
      "primitives": [
        {
          "attributes": {
            "POSITION": 4,
            "NORMAL": 5,
            "TEXCOORD_0": 6
          },
          "indices": 7,
          "material": 0,
          "mode": 4
        }
      ]
    },
    {
      "name": "MatrixTransform_Group_MatrixTransform_Group_0:MatrixTransform_Group_MatrixTransform_Group_0:MatrixTransform_Group_kg_rydw_look01_Geometry_2_Geometry_0_Geometry_0-Mesh",
      "primitives": [
        {
          "attributes": {
            "POSITION": 8,
            "NORMAL": 9,
            "TEXCOORD_0": 10
          },
          "indices": 11,
          "material": 0,
          "mode": 4
        }
      ]
    },
    {
      "name": "MatrixTransform_Group_MatrixTransform_Group_0:MatrixTransform_Group_MatrixTransform_Group_0:MatrixTransform_Group_kg_rydw_look01_Geometry_3_Geometry_0_Geometry_0-Mesh",
      "primitives": [
        {
          "attributes": {
            "POSITION": 12,
            "NORMAL": 13,
            "TEXCOORD_0": 14
          },
          "indices": 15,
          "material": 0,
          "mode": 4
        }
      ]
    },
    {
      "name": "MatrixTransform_Group_MatrixTransform_Group_0:MatrixTransform_Group_MatrixTransform_Group_0:MatrixTransform_Group_kg_rydw_look01_Geometry_4_Geometry_0_Geometry_0-Mesh",
      "primitives": [
        {
          "attributes": {
            "POSITION": 16,
            "NORMAL": 17,
            "TEXCOORD_0": 18
          },
          "indices": 19,
          "material": 0,
          "mode": 4
        }
      ]
    },
    {
      "name": "MatrixTransform_Group_MatrixTransform_Group_0:MatrixTransform_Group_MatrixTransform_Group_0:MatrixTransform_Group_kg_rydw_look01_Geometry_5_Geometry_0_Geometry_0-Mesh",
      "primitives": [
        {
          "attributes": {
            "POSITION": 20,
            "NORMAL": 21,
            "TEXCOORD_0": 22
          },
          "indices": 23,
          "material": 0,
          "mode": 4
        }
      ]
    }
  ],
  "nodes": [
    {
      "name": "MatrixTransform_Group_MatrixTransform_Group_0:MatrixTransform_Group_MatrixTransform_Group_0:MatrixTransform_Group_kg_rydw_look01_Geometry_0_Geometry_0_Geometry_0",
      "mesh": 0
    },
    {
      "name": "MatrixTransform_Group_MatrixTransform_Group_0:MatrixTransform_Group_MatrixTransform_Group_0:MatrixTransform_Group_kg_rydw_look01_Geometry_1_Geometry_0_Geometry_0",
      "mesh": 1
    },
    {
      "name": "MatrixTransform_Group_MatrixTransform_Group_0:MatrixTransform_Group_MatrixTransform_Group_0:MatrixTransform_Group_kg_rydw_look01_Geometry_2_Geometry_0_Geometry_0",
      "mesh": 2
    },
    {
      "name": "MatrixTransform_Group_MatrixTransform_Group_0:MatrixTransform_Group_MatrixTransform_Group_0:MatrixTransform_Group_kg_rydw_look01_Geometry_3_Geometry_0_Geometry_0",
      "mesh": 3
    },
    {
      "name": "MatrixTransform_Group_MatrixTransform_Group_0:MatrixTransform_Group_MatrixTransform_Group_0:MatrixTransform_Group_kg_rydw_look01_Geometry_4_Geometry_0_Geometry_0",
      "mesh": 4
    },
    {
      "name": "MatrixTransform_Group_MatrixTransform_Group_0:MatrixTransform_Group_MatrixTransform_Group_0:MatrixTransform_Group_kg_rydw_look01_Geometry_5_Geometry_0_Geometry_0",
      "mesh": 5
    }
  ],
  "samplers": [
    {
      "magFilter": 9729,
      "minFilter": 9986,
      "wrapS": 10497,
      "wrapT": 10497
    }
  ],
  "scene": 0,
  "scenes": [
    {
      "nodes": [
        0,
        1,
        2,
        3,
        4,
        5
      ]
    }
  ],
  "textures": [
    {
      "name": "kg_rydw_cjgb",
      "sampler": 0,
      "source": 0
    }
  ]
}
