{
  "accessors": [
    {
      "name": "E:\\mineData\\testdata\\jw.obj_zhw_ck_GJC4JW_Geometry_0-Mesh_positions",
      "componentType": 5126,
      "count": 622,
      "min": [
        -0.06350000202655792,
        0.0003000000142492354,
        -0.02199999988079071
      ],
      "max": [
        0.06390000134706497,
        0.24089999496936798,
        0.02199999988079071
      ],
      "type": "VEC3",
      "bufferView": 0,
      "byteOffset": 0
    },
    {
      "name": "E:\\mineData\\testdata\\jw.obj_zhw_ck_GJC4JW_Geometry_0-Mesh_normals",
      "componentType": 5126,
      "count": 622,
      "min": [
        -1,
        -1,
        -1
      ],
      "max": [
        1,
        1,
        1
      ],
      "type": "VEC3",
      "bufferView": 0,
      "byteOffset": 14568
    },
    {
      "name": "E:\\mineData\\testdata\\jw.obj_zhw_ck_GJC4JW_Geometry_0-Mesh_texcoords",
      "componentType": 5126,
      "count": 622,
      "min": [
        0.025200000032782555,
        0.009499999694526196
      ],
      "max": [
        0.991599977016449,
        0.9811000227928162
      ],
      "type": "VEC2",
      "bufferView": 1,
      "byteOffset": 0
    },
    {
      "name": "E:\\mineData\\testdata\\jw.obj_zhw_ck_GJC4JW_Geometry_0-Mesh_0_indices",
      "componentType": 5123,
      "count": 1158,
      "min": [
        0
      ],
      "max": [
        621
      ],
      "type": "SCALAR",
      "bufferView": 2,
      "byteOffset": 0
    },
    {
      "name": "E:\\mineData\\testdata\\jw.obj_zhw_ck_GJC4JW_Geometry_1-Mesh_positions",
      "componentType": 5126,
      "count": 322,
      "min": [
        -0.06350000202655792,
        0.020500000566244125,
        -0.02199999988079071
      ],
      "max": [
        0.06390000134706497,
        0.24940000474452972,
        0.017400000244379044
      ],
      "type": "VEC3",
      "bufferView": 0,
      "byteOffset": 7464
    },
    {
      "name": "E:\\mineData\\testdata\\jw.obj_zhw_ck_GJC4JW_Geometry_1-Mesh_normals",
      "componentType": 5126,
      "count": 322,
      "min": [
        -1,
        -0.9238766431808472,
        -1
      ],
      "max": [
        1,
        0.9916965961456299,
        0.9914475083351135
      ],
      "type": "VEC3",
      "bufferView": 0,
      "byteOffset": 22032
    },
    {
      "name": "E:\\mineData\\testdata\\jw.obj_zhw_ck_GJC4JW_Geometry_1-Mesh_texcoords",
      "componentType": 5126,
      "count": 322,
      "min": [
        0.32109999656677246,
        0.00930000003427267
      ],
      "max": [
        0.9908999800682068,
        0.979200005531311
      ],
      "type": "VEC2",
      "bufferView": 1,
      "byteOffset": 4976
    },
    {
      "name": "E:\\mineData\\testdata\\jw.obj_zhw_ck_GJC4JW_Geometry_1-Mesh_0_indices",
      "componentType": 5123,
      "count": 858,
      "min": [
        0
      ],
      "max": [
        321
      ],
      "type": "SCALAR",
      "bufferView": 2,
      "byteOffset": 2316
    },
    {
      "name": "E:\\mineData\\testdata\\jw.obj_zhw_ck_GJC4JW_Geometry_2-Mesh_positions",
      "componentType": 5126,
      "count": 182,
      "min": [
        -0.03359999880194664,
        0.014299999922513962,
        -0.007600000128149986
      ],
      "max": [
        0.03420000150799751,
        0.24940000474452972,
        0.01080000028014183
      ],
      "type": "VEC3",
      "bufferView": 0,
      "byteOffset": 11328
    },
    {
      "name": "E:\\mineData\\testdata\\jw.obj_zhw_ck_GJC4JW_Geometry_2-Mesh_normals",
      "componentType": 5126,
      "count": 182,
      "min": [
        -0.984815776348114,
        -0.9238766431808472,
        -1
      ],
      "max": [
        0.984815776348114,
        0.9238766431808472,
        1
      ],
      "type": "VEC3",
      "bufferView": 0,
      "byteOffset": 25896
    },
    {
      "name": "E:\\mineData\\testdata\\jw.obj_zhw_ck_GJC4JW_Geometry_2-Mesh_texcoords",
      "componentType": 5126,
      "count": 182,
      "min": [
        0.8766999840736389,
        0.5166000127792358
      ],
      "max": [
        0.9703999757766724,
        0.925000011920929
      ],
      "type": "VEC2",
      "bufferView": 1,
      "byteOffset": 7552
    },
    {
      "name": "E:\\mineData\\testdata\\jw.obj_zhw_ck_GJC4JW_Geometry_2-Mesh_0_indices",
      "componentType": 5123,
      "count": 420,
      "min": [
        0
      ],
      "max": [
        181
      ],
      "type": "SCALAR",
      "bufferView": 2,
      "byteOffset": 4032
    },
    {
      "name": "E:\\mineData\\testdata\\jw.obj_zhw_ck_GJC4JW_Geometry_3-Mesh_positions",
      "componentType": 5126,
      "count": 56,
      "min": [
        -0.041600000113248825,
        0.014299999922513962,
        -0.007600000128149986
      ],
      "max": [
        0.039400000125169754,
        0.23929999768733978,
        0.02280000038444996
      ],
      "type": "VEC3",
      "bufferView": 0,
      "byteOffset": 13512
    },
    {
      "name": "E:\\mineData\\testdata\\jw.obj_zhw_ck_GJC4JW_Geometry_3-Mesh_normals",
      "componentType": 5126,
      "count": 56,
      "min": [
        -1,
        -1,
        0
      ],
      "max": [
        0.9999987483024597,
        1,
        1
      ],
      "type": "VEC3",
      "bufferView": 0,
      "byteOffset": 28080
    },
    {
      "name": "E:\\mineData\\testdata\\jw.obj_zhw_ck_GJC4JW_Geometry_3-Mesh_texcoords",
      "componentType": 5126,
      "count": 56,
      "min": [
        0.011500000022351742,
        0.46320000290870667
      ],
      "max": [
        0.8977000117301941,
        0.9819999933242798
      ],
      "type": "VEC2",
      "bufferView": 1,
      "byteOffset": 9008
    },
    {
      "name": "E:\\mineData\\testdata\\jw.obj_zhw_ck_GJC4JW_Geometry_3-Mesh_0_indices",
      "componentType": 5123,
      "count": 150,
      "min": [
        0
      ],
      "max": [
        55
      ],
      "type": "SCALAR",
      "bufferView": 2,
      "byteOffset": 4872
    },
    {
      "name": "E:\\mineData\\testdata\\jw.obj_zhw_ck_GJC4JW_Geometry_4-Mesh_positions",
      "componentType": 5126,
      "count": 32,
      "min": [
        -0.06210000067949295,
        0.05040000006556511,
        0.0007999999797903001
      ],
      "max": [
        -0.060499999672174454,
        0.06830000132322311,
        0.01889999955892563
      ],
      "type": "VEC3",
      "bufferView": 0,
      "byteOffset": 14184
    },
    {
      "name": "E:\\mineData\\testdata\\jw.obj_zhw_ck_GJC4JW_Geometry_4-Mesh_normals",
      "componentType": 5126,
      "count": 32,
      "min": [
        -0.6860094666481018,
        -0.6837556958198547,
        -0.7165682911872864
      ],
      "max": [
        -0.6859555244445801,
        0.7276008129119873,
        0.7165682911872864
      ],
      "type": "VEC3",
      "bufferView": 0,
      "byteOffset": 28752
    },
    {
      "name": "E:\\mineData\\testdata\\jw.obj_zhw_ck_GJC4JW_Geometry_4-Mesh_texcoords",
      "componentType": 5126,
      "count": 32,
      "min": [
        0.8616999983787537,
        0.5565999746322632
      ],
      "max": [
        0.9643999934196472,
        0.892300009727478
      ],
      "type": "VEC2",
      "bufferView": 1,
      "byteOffset": 9456
    },
    {
      "name": "E:\\mineData\\testdata\\jw.obj_zhw_ck_GJC4JW_Geometry_4-Mesh_0_indices",
      "componentType": 5123,
      "count": 54,
      "min": [
        0
      ],
      "max": [
        31
      ],
      "type": "SCALAR",
      "bufferView": 2,
      "byteOffset": 5172
    }
  ],
  "asset": {
    "generator": "obj2gltf",
    "version": "2.0"
  },
  "buffers": [
    {
      "name": "jw",
      "byteLength": 612576,
      "uri": "data:application/octet-stream;base64,"
    }
  ],
  "bufferViews": [
    {
      "name": "bufferView_0",
      "buffer": 0,
      "byteLength": 29136,
      "byteOffset": 0,
      "byteStride": 12,
      "target": 34962
    },
    {
      "name": "bufferView_1",
      "buffer": 0,
      "byteLength": 9712,
      "byteOffset": 29136,
      "byteStride": 8,
      "target": 34962
    },
    {
      "name": "bufferView_2",
      "buffer": 0,
      "byteLength": 5280,
      "byteOffset": 38848,
      "target": 34963
    },
    {
      "buffer": 0,
      "byteOffset": 44128,
      "byteLength": 568446
    }
  ],
  "images": [
    {
      "name": "zhw_jiawan_tt",
      "mimeType": "image/jpeg",
      "bufferView": 3
    }
  ],
  "materials": [
    {
      "name": "material_1",
      "pbrMetallicRoughness": {
        "baseColorTexture": {
          "index": 0
        },
        "baseColorFactor": [
          1,
          1,
          1,
          1
        ],
        "metallicFactor": 0,
        "roughnessFactor": 1
      },
      "emissiveFactor": [
        0,
        0,
        0
      ],
      "alphaMode": "OPAQUE",
      "doubleSided": false
    }
  ],
  "meshes": [
    {
      "name": "E:\\mineData\\testdata\\jw.obj_zhw_ck_GJC4JW_Geometry_0-Mesh",
      "primitives": [
        {
          "attributes": {
            "POSITION": 0,
            "NORMAL": 1,
            "TEXCOORD_0": 2
          },
          "indices": 3,
          "material": 0,
          "mode": 4
        }
      ]
    },
    {
      "name": "E:\\mineData\\testdata\\jw.obj_zhw_ck_GJC4JW_Geometry_1-Mesh",
      "primitives": [
        {
          "attributes": {
            "POSITION": 4,
            "NORMAL": 5,
            "TEXCOORD_0": 6
          },
          "indices": 7,
          "material": 0,
          "mode": 4
        }
      ]
    },
    {
      "name": "E:\\mineData\\testdata\\jw.obj_zhw_ck_GJC4JW_Geometry_2-Mesh",
      "primitives": [
        {
          "attributes": {
            "POSITION": 8,
            "NORMAL": 9,
            "TEXCOORD_0": 10
          },
          "indices": 11,
          "material": 0,
          "mode": 4
        }
      ]
    },
    {
      "name": "E:\\mineData\\testdata\\jw.obj_zhw_ck_GJC4JW_Geometry_3-Mesh",
      "primitives": [
        {
          "attributes": {
            "POSITION": 12,
            "NORMAL": 13,
            "TEXCOORD_0": 14
          },
          "indices": 15,
          "material": 0,
          "mode": 4
        }
      ]
    },
    {
      "name": "E:\\mineData\\testdata\\jw.obj_zhw_ck_GJC4JW_Geometry_4-Mesh",
      "primitives": [
        {
          "attributes": {
            "POSITION": 16,
            "NORMAL": 17,
            "TEXCOORD_0": 18
          },
          "indices": 19,
          "material": 0,
          "mode": 4
        }
      ]
    }
  ],
  "nodes": [
    {
      "name": "E:\\mineData\\testdata\\jw.obj_zhw_ck_GJC4JW_Geometry_0",
      "mesh": 0
    },
    {
      "name": "E:\\mineData\\testdata\\jw.obj_zhw_ck_GJC4JW_Geometry_1",
      "mesh": 1
    },
    {
      "name": "E:\\mineData\\testdata\\jw.obj_zhw_ck_GJC4JW_Geometry_2",
      "mesh": 2
    },
    {
      "name": "E:\\mineData\\testdata\\jw.obj_zhw_ck_GJC4JW_Geometry_3",
      "mesh": 3
    },
    {
      "name": "E:\\mineData\\testdata\\jw.obj_zhw_ck_GJC4JW_Geometry_4",
      "mesh": 4
    }
  ],
  "samplers": [
    {
      "magFilter": 9729,
      "minFilter": 9986,
      "wrapS": 10497,
      "wrapT": 10497
    }
  ],
  "scene": 0,
  "scenes": [
    {
      "nodes": [
        0,
        1,
        2,
        3,
        4
      ]
    }
  ],
  "textures": [
    {
      "name": "zhw_jiawan_tt",
      "sampler": 0,
      "source": 0
    }
  ]
}
