<?xml version="1.0" encoding="utf-8"?>
<svg version="1.1" xmlns:xlink="http://www.w3.org/1999/xlink" width="25px" height="24px" xmlns="http://www.w3.org/2000/svg">
  <g transform="matrix(1 0 0 1 -1650 -577 )">
    <path d="M 1662.5 577  C 1669.5 577  1675 582.28  1675 589  C 1675 595.72  1669.5 601  1662.5 601  C 1655.5 601  1650 595.72  1650 589  C 1650 582.28  1655.5 577  1662.5 577  Z " fill-rule="nonzero" fill="#ff0000" stroke="none" />
    <path d="M 1662.5 577.5  C 1669.22 577.5  1674.5 582.56  1674.5 589  C 1674.5 595.44  1669.22 600.5  1662.5 600.5  C 1655.78 600.5  1650.5 595.44  1650.5 589  C 1650.5 582.56  1655.78 577.5  1662.5 577.5  Z " stroke-width="1" stroke="#797979" fill="none" />
  </g>
</svg>