<?xml version="1.0" encoding="utf-8"?>
<svg version="1.1" xmlns:xlink="http://www.w3.org/1999/xlink" width="190px" height="29px" xmlns="http://www.w3.org/2000/svg">
  <defs>
    <mask fill="white" id="clip91">
      <path d="M 0 19  L 0 0  L 90.0068027210884 0  L 180 0  L 180 19  L 0 19  Z " fill-rule="evenodd" />
    </mask>
    <filter x="127px" y="188px" width="190px" height="29px" filterUnits="userSpaceOnUse" id="filter92">
      <feOffset dx="5" dy="5" in="SourceAlpha" result="shadowOffsetInner" />
      <feGaussianBlur stdDeviation="2.5" in="shadowOffsetInner" result="shadowGaussian" />
      <feComposite in2="shadowGaussian" operator="atop" in="SourceAlpha" result="shadowComposite" />
      <feColorMatrix type="matrix" values="0 0 0 0 0.584313725490196  0 0 0 0 0.949019607843137  0 0 0 0 0.0156862745098039  0 0 0 0.996078431372549 0  " in="shadowComposite" />
    </filter>
    <g id="widget93">
      <path d="M 0 19  L 0 0  L 90.0068027210884 0  L 180 0  L 180 19  L 0 19  Z " fill-rule="nonzero" fill="#95f204" stroke="none" fill-opacity="0.968627450980392" transform="matrix(1 0 0 1 127 188 )" />
      <path d="M 0 19  L 0 0  L 90.0068027210884 0  L 180 0  L 180 19  L 0 19  Z " stroke-width="2" stroke="#caf982" fill="none" stroke-opacity="0.874509803921569" transform="matrix(1 0 0 1 127 188 )" mask="url(#clip91)" />
    </g>
  </defs>
  <g transform="matrix(1 0 0 1 -127 -188 )">
    <use xlink:href="#widget93" filter="url(#filter92)" />
    <use xlink:href="#widget93" />
  </g>
</svg>