<?xml version="1.0" encoding="utf-8"?>
<svg version="1.1" xmlns:xlink="http://www.w3.org/1999/xlink" width="400px" height="30px" xmlns="http://www.w3.org/2000/svg">
  <defs>
    <mask fill="white" id="clip88">
      <path d="M 0 30  L 0 0  L 169.565217391304 0  L 191.228070175439 0  L 400 0  L 400 30  L 142.105263157895 30  L 0 30  Z " fill-rule="evenodd" />
    </mask>
  </defs>
  <g transform="matrix(1 0 0 1 0 -130 )">
    <path d="M 0 30  L 0 0  L 169.565217391304 0  L 191.228070175439 0  L 400 0  L 400 30  L 142.105263157895 30  L 0 30  Z " fill-rule="nonzero" fill="#18368b" stroke="none" transform="matrix(1 0 0 1 0 130 )" />
    <path d="M 0 30  L 0 0  L 169.565217391304 0  L 191.228070175439 0  L 400 0  L 400 30  L 142.105263157895 30  L 0 30  Z " stroke-width="4" stroke="#00ffff" fill="none" stroke-opacity="0.803921568627451" transform="matrix(1 0 0 1 0 130 )" mask="url(#clip88)" />
  </g>
</svg>