<?xml version="1.0" encoding="utf-8"?>
<svg version="1.1" xmlns:xlink="http://www.w3.org/1999/xlink" width="23px" height="23px" xmlns="http://www.w3.org/2000/svg">
  <g transform="matrix(1 0 0 1 -1154 -440 )">
    <path d="M 1165.5 440  C 1171.94 440  1177 445.06  1177 451.5  C 1177 457.94  1171.94 463  1165.5 463  C 1159.06 463  1154 457.94  1154 451.5  C 1154 445.06  1159.06 440  1165.5 440  Z " fill-rule="nonzero" fill="#d7d7d7" stroke="none" />
    <path d="M 1165.5 440.5  C 1171.66 440.5  1176.5 445.34  1176.5 451.5  C 1176.5 457.66  1171.66 462.5  1165.5 462.5  C 1159.34 462.5  1154.5 457.66  1154.5 451.5  C 1154.5 445.34  1159.34 440.5  1165.5 440.5  Z " stroke-width="1" stroke="#797979" fill="none" />
  </g>
</svg>