{
  "accessors": [
    {
      "name": "MatrixTransform_Group_MatrixTransform_Group_0:MatrixTransform_Group_MatrixTransform_Group_0:MatrixTransform_Group_MatrixTransform_Group_0:MatrixTransform_Group_MatrixTransform_Group_0:MatrixTransform_Group_zhw_ck_SXGFY15_Geometry_0_Geometry_0_Geometry_0_Geometry_0_Geometry_0-Mesh_positions",
      "componentType": 5126,
      "count": 811,
      "min": [
        -0.06419999897480011,
        0.03620000183582306,
        -0.020800000056624413
      ],
      "max": [
        0.06319999694824219,
        0.30649998784065247,
        0.02319999970495701
      ],
      "type": "VEC3",
      "bufferView": 0,
      "byteOffset": 0
    },
    {
      "name": "MatrixTransform_Group_MatrixTransform_Group_0:MatrixTransform_Group_MatrixTransform_Group_0:MatrixTransform_Group_MatrixTransform_Group_0:MatrixTransform_Group_MatrixTransform_Group_0:MatrixTransform_Group_zhw_ck_SXGFY15_Geometry_0_Geometry_0_Geometry_0_Geometry_0_Geometry_0-Mesh_normals",
      "componentType": 5126,
      "count": 811,
      "min": [
        -1,
        -1,
        -1
      ],
      "max": [
        1,
        1,
        1
      ],
      "type": "VEC3",
      "bufferView": 0,
      "byteOffset": 18300
    },
    {
      "name": "MatrixTransform_Group_MatrixTransform_Group_0:MatrixTransform_Group_MatrixTransform_Group_0:MatrixTransform_Group_MatrixTransform_Group_0:MatrixTransform_Group_MatrixTransform_Group_0:MatrixTransform_Group_zhw_ck_SXGFY15_Geometry_0_Geometry_0_Geometry_0_Geometry_0_Geometry_0-Mesh_texcoords",
      "componentType": 5126,
      "count": 811,
      "min": [
        0.020600000396370888,
        0.017100000753998756
      ],
      "max": [
        0.9835000038146973,
        0.964900016784668
      ],
      "type": "VEC2",
      "bufferView": 1,
      "byteOffset": 0
    },
    {
      "name": "MatrixTransform_Group_MatrixTransform_Group_0:MatrixTransform_Group_MatrixTransform_Group_0:MatrixTransform_Group_MatrixTransform_Group_0:MatrixTransform_Group_MatrixTransform_Group_0:MatrixTransform_Group_zhw_ck_SXGFY15_Geometry_0_Geometry_0_Geometry_0_Geometry_0_Geometry_0-Mesh_0_indices",
      "componentType": 5123,
      "count": 1503,
      "min": [
        0
      ],
      "max": [
        810
      ],
      "type": "SCALAR",
      "bufferView": 2,
      "byteOffset": 0
    },
    {
      "name": "MatrixTransform_Group_MatrixTransform_Group_0:MatrixTransform_Group_MatrixTransform_Group_0:MatrixTransform_Group_MatrixTransform_Group_0:MatrixTransform_Group_MatrixTransform_Group_0:MatrixTransform_Group_zhw_ck_SXGFY15_Geometry_1_Geometry_0_Geometry_0_Geometry_0_Geometry_0-Mesh_positions",
      "componentType": 5126,
      "count": 402,
      "min": [
        -0.06419999897480011,
        -0.00009999999747378752,
        -0.020800000056624413
      ],
      "max": [
        0.06319999694824219,
        0.3149999976158142,
        0.01860000006854534
      ],
      "type": "VEC3",
      "bufferView": 0,
      "byteOffset": 9732
    },
    {
      "name": "MatrixTransform_Group_MatrixTransform_Group_0:MatrixTransform_Group_MatrixTransform_Group_0:MatrixTransform_Group_MatrixTransform_Group_0:MatrixTransform_Group_MatrixTransform_Group_0:MatrixTransform_Group_zhw_ck_SXGFY15_Geometry_1_Geometry_0_Geometry_0_Geometry_0_Geometry_0-Mesh_normals",
      "componentType": 5126,
      "count": 402,
      "min": [
        -1,
        -0.9238766431808472,
        -1
      ],
      "max": [
        1,
        0.9916965961456299,
        0.9914475083351135
      ],
      "type": "VEC3",
      "bufferView": 0,
      "byteOffset": 28032
    },
    {
      "name": "MatrixTransform_Group_MatrixTransform_Group_0:MatrixTransform_Group_MatrixTransform_Group_0:MatrixTransform_Group_MatrixTransform_Group_0:MatrixTransform_Group_MatrixTransform_Group_0:MatrixTransform_Group_zhw_ck_SXGFY15_Geometry_1_Geometry_0_Geometry_0_Geometry_0_Geometry_0-Mesh_texcoords",
      "componentType": 5126,
      "count": 402,
      "min": [
        0.3224000036716461,
        0.017100000753998756
      ],
      "max": [
        0.9803000092506409,
        0.9559000134468079
      ],
      "type": "VEC2",
      "bufferView": 1,
      "byteOffset": 6488
    },
    {
      "name": "MatrixTransform_Group_MatrixTransform_Group_0:MatrixTransform_Group_MatrixTransform_Group_0:MatrixTransform_Group_MatrixTransform_Group_0:MatrixTransform_Group_MatrixTransform_Group_0:MatrixTransform_Group_zhw_ck_SXGFY15_Geometry_1_Geometry_0_Geometry_0_Geometry_0_Geometry_0-Mesh_0_indices",
      "componentType": 5123,
      "count": 1050,
      "min": [
        0
      ],
      "max": [
        401
      ],
      "type": "SCALAR",
      "bufferView": 2,
      "byteOffset": 3008
    },
    {
      "name": "MatrixTransform_Group_MatrixTransform_Group_0:MatrixTransform_Group_MatrixTransform_Group_0:MatrixTransform_Group_MatrixTransform_Group_0:MatrixTransform_Group_MatrixTransform_Group_0:MatrixTransform_Group_zhw_ck_SXGFY15_Geometry_2_Geometry_0_Geometry_0_Geometry_0_Geometry_0-Mesh_positions",
      "componentType": 5126,
      "count": 210,
      "min": [
        -0.034299999475479126,
        -0.00009999999747378752,
        -0.006300000008195639
      ],
      "max": [
        0.05649999901652336,
        0.3149999976158142,
        0.010400000028312206
      ],
      "type": "VEC3",
      "bufferView": 0,
      "byteOffset": 14556
    },
    {
      "name": "MatrixTransform_Group_MatrixTransform_Group_0:MatrixTransform_Group_MatrixTransform_Group_0:MatrixTransform_Group_MatrixTransform_Group_0:MatrixTransform_Group_MatrixTransform_Group_0:MatrixTransform_Group_zhw_ck_SXGFY15_Geometry_2_Geometry_0_Geometry_0_Geometry_0_Geometry_0-Mesh_normals",
      "componentType": 5126,
      "count": 210,
      "min": [
        -0.9241538643836975,
        -0.9238766431808472,
        -0.9257907867431641
      ],
      "max": [
        0.9241538643836975,
        0.9238766431808472,
        0.9258525967597961
      ],
      "type": "VEC3",
      "bufferView": 0,
      "byteOffset": 32856
    },
    {
      "name": "MatrixTransform_Group_MatrixTransform_Group_0:MatrixTransform_Group_MatrixTransform_Group_0:MatrixTransform_Group_MatrixTransform_Group_0:MatrixTransform_Group_MatrixTransform_Group_0:MatrixTransform_Group_zhw_ck_SXGFY15_Geometry_2_Geometry_0_Geometry_0_Geometry_0_Geometry_0-Mesh_texcoords",
      "componentType": 5126,
      "count": 210,
      "min": [
        0.8587999939918518,
        0.4560999870300293
      ],
      "max": [
        0.9810000061988831,
        0.9448000192642212
      ],
      "type": "VEC2",
      "bufferView": 1,
      "byteOffset": 9704
    },
    {
      "name": "MatrixTransform_Group_MatrixTransform_Group_0:MatrixTransform_Group_MatrixTransform_Group_0:MatrixTransform_Group_MatrixTransform_Group_0:MatrixTransform_Group_MatrixTransform_Group_0:MatrixTransform_Group_zhw_ck_SXGFY15_Geometry_2_Geometry_0_Geometry_0_Geometry_0_Geometry_0-Mesh_0_indices",
      "componentType": 5123,
      "count": 504,
      "min": [
        0
      ],
      "max": [
        209
      ],
      "type": "SCALAR",
      "bufferView": 2,
      "byteOffset": 5108
    },
    {
      "name": "MatrixTransform_Group_MatrixTransform_Group_0:MatrixTransform_Group_MatrixTransform_Group_0:MatrixTransform_Group_MatrixTransform_Group_0:MatrixTransform_Group_MatrixTransform_Group_0:MatrixTransform_Group_zhw_ck_SXGFY15_Geometry_3_Geometry_0_Geometry_0_Geometry_0_Geometry_0-Mesh_positions",
      "componentType": 5126,
      "count": 70,
      "min": [
        -0.04010000079870224,
        -0.00009999999747378752,
        -0.006300000008195639
      ],
      "max": [
        0.05649999901652336,
        0.30489999055862427,
        0.023800000548362732
      ],
      "type": "VEC3",
      "bufferView": 0,
      "byteOffset": 17076
    },
    {
      "name": "MatrixTransform_Group_MatrixTransform_Group_0:MatrixTransform_Group_MatrixTransform_Group_0:MatrixTransform_Group_MatrixTransform_Group_0:MatrixTransform_Group_MatrixTransform_Group_0:MatrixTransform_Group_zhw_ck_SXGFY15_Geometry_3_Geometry_0_Geometry_0_Geometry_0_Geometry_0-Mesh_normals",
      "componentType": 5126,
      "count": 70,
      "min": [
        -1,
        -0.7924008965492249,
        -9.704111046068717e-17
      ],
      "max": [
        0.9999987483024597,
        1,
        1
      ],
      "type": "VEC3",
      "bufferView": 0,
      "byteOffset": 35376
    },
    {
      "name": "MatrixTransform_Group_MatrixTransform_Group_0:MatrixTransform_Group_MatrixTransform_Group_0:MatrixTransform_Group_MatrixTransform_Group_0:MatrixTransform_Group_MatrixTransform_Group_0:MatrixTransform_Group_zhw_ck_SXGFY15_Geometry_3_Geometry_0_Geometry_0_Geometry_0_Geometry_0-Mesh_texcoords",
      "componentType": 5126,
      "count": 70,
      "min": [
        0.031099999323487282,
        0.4575999975204468
      ],
      "max": [
        0.9699000120162964,
        0.9765999913215637
      ],
      "type": "VEC2",
      "bufferView": 1,
      "byteOffset": 11384
    },
    {
      "name": "MatrixTransform_Group_MatrixTransform_Group_0:MatrixTransform_Group_MatrixTransform_Group_0:MatrixTransform_Group_MatrixTransform_Group_0:MatrixTransform_Group_MatrixTransform_Group_0:MatrixTransform_Group_zhw_ck_SXGFY15_Geometry_3_Geometry_0_Geometry_0_Geometry_0_Geometry_0-Mesh_0_indices",
      "componentType": 5123,
      "count": 168,
      "min": [
        0
      ],
      "max": [
        69
      ],
      "type": "SCALAR",
      "bufferView": 2,
      "byteOffset": 6116
    },
    {
      "name": "MatrixTransform_Group_MatrixTransform_Group_0:MatrixTransform_Group_MatrixTransform_Group_0:MatrixTransform_Group_MatrixTransform_Group_0:MatrixTransform_Group_MatrixTransform_Group_0:MatrixTransform_Group_zhw_ck_SXGFY15_Geometry_4_Geometry_0_Geometry_0_Geometry_0_Geometry_0-Mesh_positions",
      "componentType": 5126,
      "count": 32,
      "min": [
        -0.06279999762773514,
        0.11599999666213989,
        0.0020000000949949026
      ],
      "max": [
        -0.06120000034570694,
        0.1339000016450882,
        0.020099999383091927
      ],
      "type": "VEC3",
      "bufferView": 0,
      "byteOffset": 17916
    },
    {
      "name": "MatrixTransform_Group_MatrixTransform_Group_0:MatrixTransform_Group_MatrixTransform_Group_0:MatrixTransform_Group_MatrixTransform_Group_0:MatrixTransform_Group_MatrixTransform_Group_0:MatrixTransform_Group_zhw_ck_SXGFY15_Geometry_4_Geometry_0_Geometry_0_Geometry_0_Geometry_0-Mesh_normals",
      "componentType": 5126,
      "count": 32,
      "min": [
        -0.6860007643699646,
        -0.6837556958198547,
        -0.7165682911872864
      ],
      "max": [
        -0.6859555244445801,
        0.7276008129119873,
        0.7165682911872864
      ],
      "type": "VEC3",
      "bufferView": 0,
      "byteOffset": 36216
    },
    {
      "name": "MatrixTransform_Group_MatrixTransform_Group_0:MatrixTransform_Group_MatrixTransform_Group_0:MatrixTransform_Group_MatrixTransform_Group_0:MatrixTransform_Group_MatrixTransform_Group_0:MatrixTransform_Group_zhw_ck_SXGFY15_Geometry_4_Geometry_0_Geometry_0_Geometry_0_Geometry_0-Mesh_texcoords",
      "componentType": 5126,
      "count": 32,
      "min": [
        0.8597000241279602,
        0.6524999737739563
      ],
      "max": [
        0.9699000120162964,
        0.9348000288009644
      ],
      "type": "VEC2",
      "bufferView": 1,
      "byteOffset": 11944
    },
    {
      "name": "MatrixTransform_Group_MatrixTransform_Group_0:MatrixTransform_Group_MatrixTransform_Group_0:MatrixTransform_Group_MatrixTransform_Group_0:MatrixTransform_Group_MatrixTransform_Group_0:MatrixTransform_Group_zhw_ck_SXGFY15_Geometry_4_Geometry_0_Geometry_0_Geometry_0_Geometry_0-Mesh_0_indices",
      "componentType": 5123,
      "count": 54,
      "min": [
        0
      ],
      "max": [
        31
      ],
      "type": "SCALAR",
      "bufferView": 2,
      "byteOffset": 6452
    }
  ],
  "asset": {
    "generator": "obj2gltf",
    "version": "2.0"
  },
  "buffers": [
    {
      "name": "GFY15",
      "byteLength": 615992,
      "uri": "data:application/octet-stream;base64,"
    }
  ],
  "bufferViews": [
    {
      "name": "bufferView_0",
      "buffer": 0,
      "byteLength": 36600,
      "byteOffset": 0,
      "byteStride": 12,
      "target": 34962
    },
    {
      "name": "bufferView_1",
      "buffer": 0,
      "byteLength": 12200,
      "byteOffset": 36600,
      "byteStride": 8,
      "target": 34962
    },
    {
      "name": "bufferView_2",
      "buffer": 0,
      "byteLength": 6560,
      "byteOffset": 48800,
      "target": 34963
    },
    {
      "buffer": 0,
      "byteOffset": 55360,
      "byteLength": 560631
    }
  ],
  "images": [
    {
      "name": "zhw_ck_SXGFY15",
      "mimeType": "image/jpeg",
      "bufferView": 3
    }
  ],
  "materials": [
    {
      "name": "material_1",
      "pbrMetallicRoughness": {
        "baseColorTexture": {
          "index": 0
        },
        "baseColorFactor": [
          1,
          1,
          1,
          1
        ],
        "metallicFactor": 0,
        "roughnessFactor": 1
      },
      "emissiveFactor": [
        0,
        0,
        0
      ],
      "alphaMode": "OPAQUE",
      "doubleSided": false
    }
  ],
  "meshes": [
    {
      "name": "MatrixTransform_Group_MatrixTransform_Group_0:MatrixTransform_Group_MatrixTransform_Group_0:MatrixTransform_Group_MatrixTransform_Group_0:MatrixTransform_Group_MatrixTransform_Group_0:MatrixTransform_Group_zhw_ck_SXGFY15_Geometry_0_Geometry_0_Geometry_0_Geometry_0_Geometry_0-Mesh",
      "primitives": [
        {
          "attributes": {
            "POSITION": 0,
            "NORMAL": 1,
            "TEXCOORD_0": 2
          },
          "indices": 3,
          "material": 0,
          "mode": 4
        }
      ]
    },
    {
      "name": "MatrixTransform_Group_MatrixTransform_Group_0:MatrixTransform_Group_MatrixTransform_Group_0:MatrixTransform_Group_MatrixTransform_Group_0:MatrixTransform_Group_MatrixTransform_Group_0:MatrixTransform_Group_zhw_ck_SXGFY15_Geometry_1_Geometry_0_Geometry_0_Geometry_0_Geometry_0-Mesh",
      "primitives": [
        {
          "attributes": {
            "POSITION": 4,
            "NORMAL": 5,
            "TEXCOORD_0": 6
          },
          "indices": 7,
          "material": 0,
          "mode": 4
        }
      ]
    },
    {
      "name": "MatrixTransform_Group_MatrixTransform_Group_0:MatrixTransform_Group_MatrixTransform_Group_0:MatrixTransform_Group_MatrixTransform_Group_0:MatrixTransform_Group_MatrixTransform_Group_0:MatrixTransform_Group_zhw_ck_SXGFY15_Geometry_2_Geometry_0_Geometry_0_Geometry_0_Geometry_0-Mesh",
      "primitives": [
        {
          "attributes": {
            "POSITION": 8,
            "NORMAL": 9,
            "TEXCOORD_0": 10
          },
          "indices": 11,
          "material": 0,
          "mode": 4
        }
      ]
    },
    {
      "name": "MatrixTransform_Group_MatrixTransform_Group_0:MatrixTransform_Group_MatrixTransform_Group_0:MatrixTransform_Group_MatrixTransform_Group_0:MatrixTransform_Group_MatrixTransform_Group_0:MatrixTransform_Group_zhw_ck_SXGFY15_Geometry_3_Geometry_0_Geometry_0_Geometry_0_Geometry_0-Mesh",
      "primitives": [
        {
          "attributes": {
            "POSITION": 12,
            "NORMAL": 13,
            "TEXCOORD_0": 14
          },
          "indices": 15,
          "material": 0,
          "mode": 4
        }
      ]
    },
    {
      "name": "MatrixTransform_Group_MatrixTransform_Group_0:MatrixTransform_Group_MatrixTransform_Group_0:MatrixTransform_Group_MatrixTransform_Group_0:MatrixTransform_Group_MatrixTransform_Group_0:MatrixTransform_Group_zhw_ck_SXGFY15_Geometry_4_Geometry_0_Geometry_0_Geometry_0_Geometry_0-Mesh",
      "primitives": [
        {
          "attributes": {
            "POSITION": 16,
            "NORMAL": 17,
            "TEXCOORD_0": 18
          },
          "indices": 19,
          "material": 0,
          "mode": 4
        }
      ]
    }
  ],
  "nodes": [
    {
      "name": "MatrixTransform_Group_MatrixTransform_Group_0:MatrixTransform_Group_MatrixTransform_Group_0:MatrixTransform_Group_MatrixTransform_Group_0:MatrixTransform_Group_MatrixTransform_Group_0:MatrixTransform_Group_zhw_ck_SXGFY15_Geometry_0_Geometry_0_Geometry_0_Geometry_0_Geometry_0",
      "mesh": 0
    },
    {
      "name": "MatrixTransform_Group_MatrixTransform_Group_0:MatrixTransform_Group_MatrixTransform_Group_0:MatrixTransform_Group_MatrixTransform_Group_0:MatrixTransform_Group_MatrixTransform_Group_0:MatrixTransform_Group_zhw_ck_SXGFY15_Geometry_1_Geometry_0_Geometry_0_Geometry_0_Geometry_0",
      "mesh": 1
    },
    {
      "name": "MatrixTransform_Group_MatrixTransform_Group_0:MatrixTransform_Group_MatrixTransform_Group_0:MatrixTransform_Group_MatrixTransform_Group_0:MatrixTransform_Group_MatrixTransform_Group_0:MatrixTransform_Group_zhw_ck_SXGFY15_Geometry_2_Geometry_0_Geometry_0_Geometry_0_Geometry_0",
      "mesh": 2
    },
    {
      "name": "MatrixTransform_Group_MatrixTransform_Group_0:MatrixTransform_Group_MatrixTransform_Group_0:MatrixTransform_Group_MatrixTransform_Group_0:MatrixTransform_Group_MatrixTransform_Group_0:MatrixTransform_Group_zhw_ck_SXGFY15_Geometry_3_Geometry_0_Geometry_0_Geometry_0_Geometry_0",
      "mesh": 3
    },
    {
      "name": "MatrixTransform_Group_MatrixTransform_Group_0:MatrixTransform_Group_MatrixTransform_Group_0:MatrixTransform_Group_MatrixTransform_Group_0:MatrixTransform_Group_MatrixTransform_Group_0:MatrixTransform_Group_zhw_ck_SXGFY15_Geometry_4_Geometry_0_Geometry_0_Geometry_0_Geometry_0",
      "mesh": 4
    }
  ],
  "samplers": [
    {
      "magFilter": 9729,
      "minFilter": 9986,
      "wrapS": 10497,
      "wrapT": 10497
    }
  ],
  "scene": 0,
  "scenes": [
    {
      "nodes": [
        0,
        1,
        2,
        3,
        4
      ]
    }
  ],
  "textures": [
    {
      "name": "zhw_ck_SXGFY15",
      "sampler": 0,
      "source": 0
    }
  ]
}
