{
  "accessors": [
    {
      "name": "MatrixTransform_Group_MatrixTransform_Group_0:MatrixTransform_Group_MatrixTransform_Group_0:MatrixTransform_Group_MatrixTransform_Group_0:MatrixTransform_Group_MatrixTransform_Group_0:MatrixTransform_Group_zhw_ck_sw_gsy10_Geometry_0_Geometry_0_Geometry_0_Geometry_0_Geometry_0-Mesh_positions",
      "componentType": 5126,
      "count": 640,
      "min": [
        -0.06379999965429306,
        0.004600000102072954,
        -0.0215000007301569
      ],
      "max": [
        0.06360000371932983,
        0.24879999458789825,
        0.02250000089406967
      ],
      "type": "VEC3",
      "bufferView": 0,
      "byteOffset": 0
    },
    {
      "name": "MatrixTransform_Group_MatrixTransform_Group_0:MatrixTransform_Group_MatrixTransform_Group_0:MatrixTransform_Group_MatrixTransform_Group_0:MatrixTransform_Group_MatrixTransform_Group_0:MatrixTransform_Group_zhw_ck_sw_gsy10_Geometry_0_Geometry_0_Geometry_0_Geometry_0_Geometry_0-Mesh_normals",
      "componentType": 5126,
      "count": 640,
      "min": [
        -1,
        -1,
        -1
      ],
      "max": [
        1,
        1,
        1
      ],
      "type": "VEC3",
      "bufferView": 0,
      "byteOffset": 16476
    },
    {
      "name": "MatrixTransform_Group_MatrixTransform_Group_0:MatrixTransform_Group_MatrixTransform_Group_0:MatrixTransform_Group_MatrixTransform_Group_0:MatrixTransform_Group_MatrixTransform_Group_0:MatrixTransform_Group_zhw_ck_sw_gsy10_Geometry_0_Geometry_0_Geometry_0_Geometry_0_Geometry_0-Mesh_texcoords",
      "componentType": 5126,
      "count": 640,
      "min": [
        0.0272000003606081,
        0.00989999994635582
      ],
      "max": [
        0.9937999844551086,
        0.991100013256073
      ],
      "type": "VEC2",
      "bufferView": 1,
      "byteOffset": 0
    },
    {
      "name": "MatrixTransform_Group_MatrixTransform_Group_0:MatrixTransform_Group_MatrixTransform_Group_0:MatrixTransform_Group_MatrixTransform_Group_0:MatrixTransform_Group_MatrixTransform_Group_0:MatrixTransform_Group_zhw_ck_sw_gsy10_Geometry_0_Geometry_0_Geometry_0_Geometry_0_Geometry_0-Mesh_0_indices",
      "componentType": 5123,
      "count": 1158,
      "min": [
        0
      ],
      "max": [
        639
      ],
      "type": "SCALAR",
      "bufferView": 2,
      "byteOffset": 0
    },
    {
      "name": "MatrixTransform_Group_MatrixTransform_Group_0:MatrixTransform_Group_MatrixTransform_Group_0:MatrixTransform_Group_MatrixTransform_Group_0:MatrixTransform_Group_MatrixTransform_Group_0:MatrixTransform_Group_zhw_ck_sw_gsy10_Geometry_1_Geometry_0_Geometry_0_Geometry_0_Geometry_0-Mesh_positions",
      "componentType": 5126,
      "count": 371,
      "min": [
        -0.06379999965429306,
        0.004600000102072954,
        -0.0215000007301569
      ],
      "max": [
        0.06360000371932983,
        0.2574000060558319,
        0.02370000071823597
      ],
      "type": "VEC3",
      "bufferView": 0,
      "byteOffset": 7680
    },
    {
      "name": "MatrixTransform_Group_MatrixTransform_Group_0:MatrixTransform_Group_MatrixTransform_Group_0:MatrixTransform_Group_MatrixTransform_Group_0:MatrixTransform_Group_MatrixTransform_Group_0:MatrixTransform_Group_zhw_ck_sw_gsy10_Geometry_1_Geometry_0_Geometry_0_Geometry_0_Geometry_0-Mesh_normals",
      "componentType": 5126,
      "count": 371,
      "min": [
        -1,
        -1,
        -1
      ],
      "max": [
        1,
        0.9916965961456299,
        1
      ],
      "type": "VEC3",
      "bufferView": 0,
      "byteOffset": 24156
    },
    {
      "name": "MatrixTransform_Group_MatrixTransform_Group_0:MatrixTransform_Group_MatrixTransform_Group_0:MatrixTransform_Group_MatrixTransform_Group_0:MatrixTransform_Group_MatrixTransform_Group_0:MatrixTransform_Group_zhw_ck_sw_gsy10_Geometry_1_Geometry_0_Geometry_0_Geometry_0_Geometry_0-Mesh_texcoords",
      "componentType": 5126,
      "count": 371,
      "min": [
        0.009700000286102295,
        0.00839999970048666
      ],
      "max": [
        0.9921000003814697,
        0.9836999773979187
      ],
      "type": "VEC2",
      "bufferView": 1,
      "byteOffset": 5120
    },
    {
      "name": "MatrixTransform_Group_MatrixTransform_Group_0:MatrixTransform_Group_MatrixTransform_Group_0:MatrixTransform_Group_MatrixTransform_Group_0:MatrixTransform_Group_MatrixTransform_Group_0:MatrixTransform_Group_zhw_ck_sw_gsy10_Geometry_1_Geometry_0_Geometry_0_Geometry_0_Geometry_0-Mesh_0_indices",
      "componentType": 5123,
      "count": 969,
      "min": [
        0
      ],
      "max": [
        370
      ],
      "type": "SCALAR",
      "bufferView": 2,
      "byteOffset": 2316
    },
    {
      "name": "MatrixTransform_Group_MatrixTransform_Group_0:MatrixTransform_Group_MatrixTransform_Group_0:MatrixTransform_Group_MatrixTransform_Group_0:MatrixTransform_Group_MatrixTransform_Group_0:MatrixTransform_Group_zhw_ck_sw_gsy10_Geometry_2_Geometry_0_Geometry_0_Geometry_0_Geometry_0-Mesh_positions",
      "componentType": 5126,
      "count": 182,
      "min": [
        -0.033900000154972076,
        0.022199999541044235,
        -0.007000000216066837
      ],
      "max": [
        0.033900000154972076,
        0.2574000060558319,
        0.011300000362098217
      ],
      "type": "VEC3",
      "bufferView": 0,
      "byteOffset": 12132
    },
    {
      "name": "MatrixTransform_Group_MatrixTransform_Group_0:MatrixTransform_Group_MatrixTransform_Group_0:MatrixTransform_Group_MatrixTransform_Group_0:MatrixTransform_Group_MatrixTransform_Group_0:MatrixTransform_Group_zhw_ck_sw_gsy10_Geometry_2_Geometry_0_Geometry_0_Geometry_0_Geometry_0-Mesh_normals",
      "componentType": 5126,
      "count": 182,
      "min": [
        -0.984815776348114,
        -0.9238766431808472,
        -1
      ],
      "max": [
        0.984815776348114,
        0.9238766431808472,
        1
      ],
      "type": "VEC3",
      "bufferView": 0,
      "byteOffset": 28608
    },
    {
      "name": "MatrixTransform_Group_MatrixTransform_Group_0:MatrixTransform_Group_MatrixTransform_Group_0:MatrixTransform_Group_MatrixTransform_Group_0:MatrixTransform_Group_MatrixTransform_Group_0:MatrixTransform_Group_zhw_ck_sw_gsy10_Geometry_2_Geometry_0_Geometry_0_Geometry_0_Geometry_0-Mesh_texcoords",
      "componentType": 5126,
      "count": 182,
      "min": [
        0.8604999780654907,
        0.23579999804496765
      ],
      "max": [
        0.9713000059127808,
        0.8880000114440918
      ],
      "type": "VEC2",
      "bufferView": 1,
      "byteOffset": 8088
    },
    {
      "name": "MatrixTransform_Group_MatrixTransform_Group_0:MatrixTransform_Group_MatrixTransform_Group_0:MatrixTransform_Group_MatrixTransform_Group_0:MatrixTransform_Group_MatrixTransform_Group_0:MatrixTransform_Group_zhw_ck_sw_gsy10_Geometry_2_Geometry_0_Geometry_0_Geometry_0_Geometry_0-Mesh_0_indices",
      "componentType": 5123,
      "count": 420,
      "min": [
        0
      ],
      "max": [
        181
      ],
      "type": "SCALAR",
      "bufferView": 2,
      "byteOffset": 4256
    },
    {
      "name": "MatrixTransform_Group_MatrixTransform_Group_0:MatrixTransform_Group_MatrixTransform_Group_0:MatrixTransform_Group_MatrixTransform_Group_0:MatrixTransform_Group_MatrixTransform_Group_0:MatrixTransform_Group_zhw_ck_sw_gsy10_Geometry_3_Geometry_0_Geometry_0_Geometry_0_Geometry_0-Mesh_positions",
      "componentType": 5126,
      "count": 52,
      "min": [
        -0.033900000154972076,
        0.022199999541044235,
        -0.007000000216066837
      ],
      "max": [
        0.033900000154972076,
        0.24719999730587006,
        0.011300000362098217
      ],
      "type": "VEC3",
      "bufferView": 0,
      "byteOffset": 14316
    },
    {
      "name": "MatrixTransform_Group_MatrixTransform_Group_0:MatrixTransform_Group_MatrixTransform_Group_0:MatrixTransform_Group_MatrixTransform_Group_0:MatrixTransform_Group_MatrixTransform_Group_0:MatrixTransform_Group_zhw_ck_sw_gsy10_Geometry_3_Geometry_0_Geometry_0_Geometry_0_Geometry_0-Mesh_normals",
      "componentType": 5126,
      "count": 52,
      "min": [
        -1,
        -1,
        -1.22465002895872e-16
      ],
      "max": [
        0.9999987483024597,
        1,
        1.22465002895872e-16
      ],
      "type": "VEC3",
      "bufferView": 0,
      "byteOffset": 30792
    },
    {
      "name": "MatrixTransform_Group_MatrixTransform_Group_0:MatrixTransform_Group_MatrixTransform_Group_0:MatrixTransform_Group_MatrixTransform_Group_0:MatrixTransform_Group_MatrixTransform_Group_0:MatrixTransform_Group_zhw_ck_sw_gsy10_Geometry_3_Geometry_0_Geometry_0_Geometry_0_Geometry_0-Mesh_texcoords",
      "componentType": 5126,
      "count": 52,
      "min": [
        0.8406999707221985,
        0.6588000059127808
      ],
      "max": [
        0.9871000051498413,
        0.916700005531311
      ],
      "type": "VEC2",
      "bufferView": 1,
      "byteOffset": 9544
    },
    {
      "name": "MatrixTransform_Group_MatrixTransform_Group_0:MatrixTransform_Group_MatrixTransform_Group_0:MatrixTransform_Group_MatrixTransform_Group_0:MatrixTransform_Group_MatrixTransform_Group_0:MatrixTransform_Group_zhw_ck_sw_gsy10_Geometry_3_Geometry_0_Geometry_0_Geometry_0_Geometry_0-Mesh_0_indices",
      "componentType": 5123,
      "count": 144,
      "min": [
        0
      ],
      "max": [
        51
      ],
      "type": "SCALAR",
      "bufferView": 2,
      "byteOffset": 5096
    },
    {
      "name": "MatrixTransform_Group_MatrixTransform_Group_0:MatrixTransform_Group_MatrixTransform_Group_0:MatrixTransform_Group_MatrixTransform_Group_0:MatrixTransform_Group_MatrixTransform_Group_0:MatrixTransform_Group_zhw_ck_sw_gsy10_Geometry_4_Geometry_0_Geometry_0_Geometry_0_Geometry_0-Mesh_positions",
      "componentType": 5126,
      "count": 128,
      "min": [
        -0.062300000339746475,
        0.02319999970495701,
        0.000699999975040555
      ],
      "max": [
        -0.019700000062584877,
        0.07620000094175339,
        0.01940000057220459
      ],
      "type": "VEC3",
      "bufferView": 0,
      "byteOffset": 14940
    },
    {
      "name": "MatrixTransform_Group_MatrixTransform_Group_0:MatrixTransform_Group_MatrixTransform_Group_0:MatrixTransform_Group_MatrixTransform_Group_0:MatrixTransform_Group_MatrixTransform_Group_0:MatrixTransform_Group_zhw_ck_sw_gsy10_Geometry_4_Geometry_0_Geometry_0_Geometry_0_Geometry_0-Mesh_normals",
      "componentType": 5126,
      "count": 128,
      "min": [
        -1,
        -0.6837556958198547,
        -1
      ],
      "max": [
        1,
        0.7276008129119873,
        1
      ],
      "type": "VEC3",
      "bufferView": 0,
      "byteOffset": 31416
    },
    {
      "name": "MatrixTransform_Group_MatrixTransform_Group_0:MatrixTransform_Group_MatrixTransform_Group_0:MatrixTransform_Group_MatrixTransform_Group_0:MatrixTransform_Group_MatrixTransform_Group_0:MatrixTransform_Group_zhw_ck_sw_gsy10_Geometry_4_Geometry_0_Geometry_0_Geometry_0_Geometry_0-Mesh_texcoords",
      "componentType": 5126,
      "count": 128,
      "min": [
        0.8361999988555908,
        0.2637999951839447
      ],
      "max": [
        0.9708999991416931,
        0.8335999846458435
      ],
      "type": "VEC2",
      "bufferView": 1,
      "byteOffset": 9960
    },
    {
      "name": "MatrixTransform_Group_MatrixTransform_Group_0:MatrixTransform_Group_MatrixTransform_Group_0:MatrixTransform_Group_MatrixTransform_Group_0:MatrixTransform_Group_MatrixTransform_Group_0:MatrixTransform_Group_zhw_ck_sw_gsy10_Geometry_4_Geometry_0_Geometry_0_Geometry_0_Geometry_0-Mesh_0_indices",
      "componentType": 5123,
      "count": 246,
      "min": [
        0
      ],
      "max": [
        127
      ],
      "type": "SCALAR",
      "bufferView": 2,
      "byteOffset": 5384
    }
  ],
  "asset": {
    "generator": "obj2gltf",
    "version": "2.0"
  },
  "buffers": [
    {
      "name": "GSY10",
      "byteLength": 602784,
      "uri": "data:application/octet-stream;base64,"
    }
  ],
  "bufferViews": [
    {
      "name": "bufferView_0",
      "buffer": 0,
      "byteLength": 32952,
      "byteOffset": 0,
      "byteStride": 12,
      "target": 34962
    },
    {
      "name": "bufferView_1",
      "buffer": 0,
      "byteLength": 10984,
      "byteOffset": 32952,
      "byteStride": 8,
      "target": 34962
    },
    {
      "name": "bufferView_2",
      "buffer": 0,
      "byteLength": 5876,
      "byteOffset": 43936,
      "target": 34963
    },
    {
      "buffer": 0,
      "byteOffset": 49812,
      "byteLength": 552971
    }
  ],
  "images": [
    {
      "name": "zhw_ck_sw_gsy10",
      "mimeType": "image/jpeg",
      "bufferView": 3
    }
  ],
  "materials": [
    {
      "name": "material_1",
      "pbrMetallicRoughness": {
        "baseColorTexture": {
          "index": 0
        },
        "baseColorFactor": [
          1,
          1,
          1,
          1
        ],
        "metallicFactor": 0,
        "roughnessFactor": 1
      },
      "emissiveFactor": [
        0,
        0,
        0
      ],
      "alphaMode": "OPAQUE",
      "doubleSided": false
    }
  ],
  "meshes": [
    {
      "name": "MatrixTransform_Group_MatrixTransform_Group_0:MatrixTransform_Group_MatrixTransform_Group_0:MatrixTransform_Group_MatrixTransform_Group_0:MatrixTransform_Group_MatrixTransform_Group_0:MatrixTransform_Group_zhw_ck_sw_gsy10_Geometry_0_Geometry_0_Geometry_0_Geometry_0_Geometry_0-Mesh",
      "primitives": [
        {
          "attributes": {
            "POSITION": 0,
            "NORMAL": 1,
            "TEXCOORD_0": 2
          },
          "indices": 3,
          "material": 0,
          "mode": 4
        }
      ]
    },
    {
      "name": "MatrixTransform_Group_MatrixTransform_Group_0:MatrixTransform_Group_MatrixTransform_Group_0:MatrixTransform_Group_MatrixTransform_Group_0:MatrixTransform_Group_MatrixTransform_Group_0:MatrixTransform_Group_zhw_ck_sw_gsy10_Geometry_1_Geometry_0_Geometry_0_Geometry_0_Geometry_0-Mesh",
      "primitives": [
        {
          "attributes": {
            "POSITION": 4,
            "NORMAL": 5,
            "TEXCOORD_0": 6
          },
          "indices": 7,
          "material": 0,
          "mode": 4
        }
      ]
    },
    {
      "name": "MatrixTransform_Group_MatrixTransform_Group_0:MatrixTransform_Group_MatrixTransform_Group_0:MatrixTransform_Group_MatrixTransform_Group_0:MatrixTransform_Group_MatrixTransform_Group_0:MatrixTransform_Group_zhw_ck_sw_gsy10_Geometry_2_Geometry_0_Geometry_0_Geometry_0_Geometry_0-Mesh",
      "primitives": [
        {
          "attributes": {
            "POSITION": 8,
            "NORMAL": 9,
            "TEXCOORD_0": 10
          },
          "indices": 11,
          "material": 0,
          "mode": 4
        }
      ]
    },
    {
      "name": "MatrixTransform_Group_MatrixTransform_Group_0:MatrixTransform_Group_MatrixTransform_Group_0:MatrixTransform_Group_MatrixTransform_Group_0:MatrixTransform_Group_MatrixTransform_Group_0:MatrixTransform_Group_zhw_ck_sw_gsy10_Geometry_3_Geometry_0_Geometry_0_Geometry_0_Geometry_0-Mesh",
      "primitives": [
        {
          "attributes": {
            "POSITION": 12,
            "NORMAL": 13,
            "TEXCOORD_0": 14
          },
          "indices": 15,
          "material": 0,
          "mode": 4
        }
      ]
    },
    {
      "name": "MatrixTransform_Group_MatrixTransform_Group_0:MatrixTransform_Group_MatrixTransform_Group_0:MatrixTransform_Group_MatrixTransform_Group_0:MatrixTransform_Group_MatrixTransform_Group_0:MatrixTransform_Group_zhw_ck_sw_gsy10_Geometry_4_Geometry_0_Geometry_0_Geometry_0_Geometry_0-Mesh",
      "primitives": [
        {
          "attributes": {
            "POSITION": 16,
            "NORMAL": 17,
            "TEXCOORD_0": 18
          },
          "indices": 19,
          "material": 0,
          "mode": 4
        }
      ]
    }
  ],
  "nodes": [
    {
      "name": "MatrixTransform_Group_MatrixTransform_Group_0:MatrixTransform_Group_MatrixTransform_Group_0:MatrixTransform_Group_MatrixTransform_Group_0:MatrixTransform_Group_MatrixTransform_Group_0:MatrixTransform_Group_zhw_ck_sw_gsy10_Geometry_0_Geometry_0_Geometry_0_Geometry_0_Geometry_0",
      "mesh": 0
    },
    {
      "name": "MatrixTransform_Group_MatrixTransform_Group_0:MatrixTransform_Group_MatrixTransform_Group_0:MatrixTransform_Group_MatrixTransform_Group_0:MatrixTransform_Group_MatrixTransform_Group_0:MatrixTransform_Group_zhw_ck_sw_gsy10_Geometry_1_Geometry_0_Geometry_0_Geometry_0_Geometry_0",
      "mesh": 1
    },
    {
      "name": "MatrixTransform_Group_MatrixTransform_Group_0:MatrixTransform_Group_MatrixTransform_Group_0:MatrixTransform_Group_MatrixTransform_Group_0:MatrixTransform_Group_MatrixTransform_Group_0:MatrixTransform_Group_zhw_ck_sw_gsy10_Geometry_2_Geometry_0_Geometry_0_Geometry_0_Geometry_0",
      "mesh": 2
    },
    {
      "name": "MatrixTransform_Group_MatrixTransform_Group_0:MatrixTransform_Group_MatrixTransform_Group_0:MatrixTransform_Group_MatrixTransform_Group_0:MatrixTransform_Group_MatrixTransform_Group_0:MatrixTransform_Group_zhw_ck_sw_gsy10_Geometry_3_Geometry_0_Geometry_0_Geometry_0_Geometry_0",
      "mesh": 3
    },
    {
      "name": "MatrixTransform_Group_MatrixTransform_Group_0:MatrixTransform_Group_MatrixTransform_Group_0:MatrixTransform_Group_MatrixTransform_Group_0:MatrixTransform_Group_MatrixTransform_Group_0:MatrixTransform_Group_zhw_ck_sw_gsy10_Geometry_4_Geometry_0_Geometry_0_Geometry_0_Geometry_0",
      "mesh": 4
    }
  ],
  "samplers": [
    {
      "magFilter": 9729,
      "minFilter": 9986,
      "wrapS": 10497,
      "wrapT": 10497
    }
  ],
  "scene": 0,
  "scenes": [
    {
      "nodes": [
        0,
        1,
        2,
        3,
        4
      ]
    }
  ],
  "textures": [
    {
      "name": "zhw_ck_sw_gsy10",
      "sampler": 0,
      "source": 0
    }
  ]
}
